<svg width="20" height="20" viewBox="0 0 20 20" fill="none" xmlns="http://www.w3.org/2000/svg">
<path fill-rule="evenodd" clip-rule="evenodd" d="M9.5 0C8.94772 0 8.5 0.447715 8.5 1V2.1404C7.40602 2.34792 6.3909 2.77818 5.50358 3.38224L4.69668 2.57535C4.30616 2.18483 3.67299 2.18483 3.28247 2.57535L2.57536 3.28246C2.18484 3.67298 2.18484 4.30615 2.57536 4.69667L3.38225 5.50356C2.77819 6.39088 2.34792 7.40602 2.1404 8.5H1C0.447715 8.5 0 8.94771 0 9.5V10.5C0 11.0523 0.447715 11.5 1 11.5H2.1404C2.34792 12.594 2.77819 13.6091 3.38225 14.4964L2.57538 15.3033C2.18485 15.6938 2.18485 16.327 2.57538 16.7175L3.28248 17.4246C3.67301 17.8152 4.30617 17.8152 4.6967 17.4246L5.50358 16.6178C6.3909 17.2218 7.40602 17.6521 8.5 17.8596V19C8.5 19.5523 8.94771 20 9.5 20H10.5C11.0523 20 11.5 19.5523 11.5 19V17.8596C12.594 17.6521 13.6091 17.2218 14.4964 16.6177L15.3033 17.4246C15.6938 17.8151 16.327 17.8151 16.7175 17.4246L17.4246 16.7175C17.8151 16.327 17.8151 15.6938 17.4246 15.3033L16.6178 14.4964C17.2218 13.6091 17.6521 12.594 17.8596 11.5H19C19.5523 11.5 20 11.0523 20 10.5V9.5C20 8.94772 19.5523 8.5 19 8.5H17.8596C17.6521 7.40602 17.2218 6.3909 16.6178 5.50358L17.4246 4.69671C17.8151 4.30619 17.8151 3.67302 17.4246 3.2825L16.7175 2.57539C16.327 2.18487 15.6938 2.18487 15.3033 2.57539L14.4964 3.38225C13.6091 2.77819 12.594 2.34792 11.5 2.1404V1C11.5 0.447715 11.0523 0 10.5 0H9.5ZM10 13.5C11.933 13.5 13.5 11.933 13.5 10C13.5 8.067 11.933 6.5 10 6.5C8.067 6.5 6.5 8.067 6.5 10C6.5 11.933 8.067 13.5 10 13.5Z" fill="white"/>
</svg>
