<svg width="16" height="17" viewBox="0 0 16 17" fill="none" xmlns="http://www.w3.org/2000/svg">
<path d="M0.313377 7.2596L7.31338 0.648479C7.69877 0.284496 8.30123 0.284496 8.68663 0.648479L15.6866 7.2596C15.8866 7.44851 16 7.71148 16 7.98661V16C16 16.5523 15.5523 17 15 17H11.5C10.9477 17 10.5 16.5523 10.5 16V11.3889C10.5 10.8366 10.0523 10.3889 9.5 10.3889H6.5C5.94772 10.3889 5.5 10.8366 5.5 11.3889V16C5.5 16.5523 5.05229 17 4.5 17H1C0.447715 17 0 16.5523 0 16V7.98661C0 7.71148 0.113355 7.44851 0.313377 7.2596Z" fill="white"/>
</svg>
