<svg width="10" height="7" viewBox="0 0 10 7" fill="none" xmlns="http://www.w3.org/2000/svg">
<path d="M2.74984 1.53863C2.74984 1.57542 2.7915 1.61221 2.83317 1.649L3.6665 2.38483C3.74984 2.45841 3.83317 2.4952 3.95817 2.4952C4.08317 2.4952 4.1665 2.45841 4.24984 2.38483C4.4165 2.23766 4.4165 2.01691 4.24984 1.86975L4.12484 1.75938H5.87484L5.74984 1.86975C5.6665 1.94333 5.62484 2.01691 5.62484 2.12729C5.62484 2.34804 5.7915 2.4952 6.0415 2.4952C6.1665 2.4952 6.24984 2.45841 6.33317 2.38483L7.1665 1.649C7.20817 1.61221 7.24984 1.57542 7.24984 1.53863C7.24984 1.50184 7.2915 1.46504 7.2915 1.39146C7.2915 1.35467 7.2915 1.28109 7.24984 1.2443C7.20817 1.2075 7.20817 1.17071 7.1665 1.13392L6.33317 0.398094C6.1665 0.250928 5.9165 0.250928 5.74984 0.398094C5.58317 0.545259 5.58317 0.766008 5.74984 0.913173L5.87484 1.02355H4.12484L4.24984 0.913173C4.4165 0.766008 4.4165 0.545259 4.24984 0.398094C4.08317 0.250928 3.83317 0.250928 3.6665 0.398094L2.83317 1.13392C2.7915 1.17071 2.74984 1.2075 2.74984 1.2443C2.74984 1.28109 2.70817 1.31788 2.70817 1.39146C2.70817 1.42825 2.70817 1.50184 2.74984 1.53863ZM2.49984 4.40836C3.08317 4.40836 3.58317 3.96686 3.58317 3.45178C3.58317 2.9367 3.08317 2.4952 2.49984 2.4952C1.9165 2.4952 1.4165 2.9367 1.4165 3.45178C1.4165 3.96686 1.9165 4.40836 2.49984 4.40836ZM4.08317 5.40172C2.99984 4.6291 1.4165 4.77627 0.541504 5.73284C0.458171 5.84322 0.416504 5.95359 0.416504 6.06397C0.416504 6.32151 0.666504 6.54226 0.958171 6.54226H4.0415C4.24984 6.54226 4.45817 6.43188 4.5415 6.28472C4.62484 6.13755 4.62484 5.9168 4.45817 5.76964C4.33317 5.62247 4.20817 5.5121 4.08317 5.40172ZM6.4165 3.45178C6.4165 3.96686 6.9165 4.40836 7.49984 4.40836C8.08317 4.40836 8.58317 3.96686 8.58317 3.45178C8.58317 2.9367 8.08317 2.4952 7.49984 2.4952C6.9165 2.4952 6.4165 2.9367 6.4165 3.45178ZM9.45817 5.76964C9.33317 5.65926 9.20817 5.5121 9.08317 5.43851C7.99984 4.66589 6.4165 4.81306 5.5415 5.76964C5.45817 5.84322 5.4165 5.95359 5.4165 6.06397C5.4165 6.32151 5.6665 6.54226 5.95817 6.54226H9.0415C9.24984 6.54226 9.45817 6.43188 9.5415 6.28472C9.62484 6.10076 9.58317 5.9168 9.45817 5.76964Z" fill="#2D4F96"/>
</svg>
