<svg width="10" height="10" viewBox="0 0 10 10" fill="none" xmlns="http://www.w3.org/2000/svg">
<path d="M6.54571 5.29584C6.95421 4.97445 7.25237 4.53373 7.39873 4.03499C7.54508 3.53625 7.53234 3.00429 7.36229 2.51312C7.19223 2.02196 6.87332 1.59601 6.44991 1.29453C6.0265 0.993061 5.51965 0.831055 4.99988 0.831055C4.48011 0.831055 3.97326 0.993061 3.54985 1.29453C3.12644 1.59601 2.80752 2.02196 2.63747 2.51312C2.46741 3.00429 2.45467 3.53625 2.60103 4.03499C2.74738 4.53373 3.04555 4.97445 3.45404 5.29584C2.75408 5.57628 2.14333 6.04141 1.68692 6.64164C1.2305 7.24188 0.945528 7.95472 0.862377 8.70418C0.856358 8.7589 0.861175 8.81426 0.876554 8.86712C0.891933 8.91997 0.917571 8.96928 0.952006 9.01223C1.02155 9.09897 1.1227 9.15452 1.23321 9.16668C1.34372 9.17883 1.45453 9.14659 1.54126 9.07705C1.628 9.0075 1.68355 8.90635 1.69571 8.79584C1.7872 7.98134 2.17558 7.2291 2.78663 6.68284C3.39769 6.13658 4.18858 5.83461 5.00821 5.83461C5.82784 5.83461 6.61873 6.13658 7.22979 6.68284C7.84084 7.2291 8.22922 7.98134 8.32071 8.79584C8.33204 8.89823 8.38089 8.99279 8.45784 9.06127C8.53478 9.12975 8.63437 9.1673 8.73738 9.16668H8.78321C8.89243 9.15411 8.99226 9.09888 9.06094 9.01303C9.12963 8.92718 9.16159 8.81766 9.14988 8.70834C9.06633 7.95676 8.77982 7.24209 8.32106 6.64093C7.8623 6.03977 7.24859 5.57479 6.54571 5.29584V5.29584ZM4.99988 5.00001C4.67024 5.00001 4.34801 4.90226 4.07393 4.71913C3.79984 4.53599 3.58622 4.27569 3.46008 3.97115C3.33393 3.66661 3.30093 3.3315 3.36523 3.00819C3.42954 2.68489 3.58828 2.38792 3.82137 2.15483C4.05445 1.92175 4.35142 1.76301 4.67473 1.6987C4.99803 1.63439 5.33314 1.6674 5.63768 1.79355C5.94223 1.91969 6.20252 2.13331 6.38566 2.40739C6.5688 2.68148 6.66654 3.00371 6.66654 3.33334C6.66654 3.77537 6.49095 4.1993 6.17839 4.51186C5.86583 4.82442 5.4419 5.00001 4.99988 5.00001Z" fill="#2D4F96"/>
</svg>
