<svg width="10" height="8" viewBox="0 0 10 8" fill="none" xmlns="http://www.w3.org/2000/svg">
<path d="M7.91683 0.25H2.0835C1.75198 0.25 1.43403 0.381696 1.19961 0.616117C0.965192 0.850537 0.833496 1.16848 0.833496 1.5V4.83333C0.833496 5.16485 0.965192 5.4828 1.19961 5.71722C1.43403 5.95164 1.75198 6.08333 2.0835 6.08333H4.5835V6.91667H2.91683C2.80632 6.91667 2.70034 6.96056 2.6222 7.03871C2.54406 7.11685 2.50016 7.22283 2.50016 7.33333C2.50016 7.44384 2.54406 7.54982 2.6222 7.62796C2.70034 7.7061 2.80632 7.75 2.91683 7.75H7.0835C7.194 7.75 7.29998 7.7061 7.37812 7.62796C7.45626 7.54982 7.50016 7.44384 7.50016 7.33333C7.50016 7.22283 7.45626 7.11685 7.37812 7.03871C7.29998 6.96056 7.194 6.91667 7.0835 6.91667H5.41683V6.08333H7.91683C8.24835 6.08333 8.56629 5.95164 8.80071 5.71722C9.03513 5.4828 9.16683 5.16485 9.16683 4.83333V1.5C9.16683 1.16848 9.03513 0.850537 8.80071 0.616117C8.56629 0.381696 8.24835 0.25 7.91683 0.25ZM8.3335 4.83333C8.3335 4.94384 8.2896 5.04982 8.21146 5.12796C8.13332 5.2061 8.02734 5.25 7.91683 5.25H2.0835C1.97299 5.25 1.86701 5.2061 1.78887 5.12796C1.71073 5.04982 1.66683 4.94384 1.66683 4.83333V1.5C1.66683 1.38949 1.71073 1.28351 1.78887 1.20537C1.86701 1.12723 1.97299 1.08333 2.0835 1.08333H7.91683C8.02734 1.08333 8.13332 1.12723 8.21146 1.20537C8.2896 1.28351 8.3335 1.38949 8.3335 1.5V4.83333Z" fill="#2D4F96"/>
</svg>
