<svg width="7" height="12" viewBox="0 0 7 12" fill="none" xmlns="http://www.w3.org/2000/svg">
<path d="M5.79687 5.19078L1.73682 0.338513C1.6478 0.231249 1.54189 0.146112 1.42521 0.0880123C1.30852 0.0299124 1.18336 0 1.05695 0C0.930542 0 0.805383 0.0299124 0.688696 0.0880123C0.572008 0.146112 0.466101 0.231249 0.377084 0.338513C0.198738 0.552931 0.0986328 0.842982 0.0986328 1.14532C0.0986328 1.44765 0.198738 1.7377 0.377084 1.95212L3.76684 6.00331L0.377084 10.0545C0.198738 10.2689 0.0986328 10.559 0.0986328 10.8613C0.0986328 11.1636 0.198738 11.4537 0.377084 11.6681C0.466558 11.7742 0.572671 11.8581 0.689338 11.915C0.806005 11.972 0.93093 12.0009 1.05695 12C1.18297 12.0009 1.3079 11.972 1.42456 11.915C1.54123 11.8581 1.64734 11.7742 1.73682 11.6681L5.79687 6.81583C5.88662 6.70945 5.95786 6.58288 6.00647 6.44342C6.05509 6.30396 6.08011 6.15438 6.08011 6.00331C6.08011 5.85223 6.05509 5.70265 6.00647 5.5632C5.95786 5.42374 5.88662 5.29717 5.79687 5.19078Z" fill="#74788D"/>
</svg>
