<svg width="18" height="22" viewBox="0 0 18 22" fill="none" xmlns="http://www.w3.org/2000/svg">
<path d="M15.855 12.681V9.30225C15.8534 7.79681 15.3194 6.34049 14.3475 5.19119C13.3756 4.04189 12.0285 3.27378 10.5447 3.02287V1.86475C10.5447 1.58295 10.4328 1.3127 10.2337 1.11345C10.0345 0.914188 9.76436 0.802246 9.48269 0.802246C9.20102 0.802246 8.93088 0.914188 8.73171 1.11345C8.53254 1.3127 8.42065 1.58295 8.42065 1.86475V3.02287C6.9369 3.27378 5.58979 4.04189 4.61787 5.19119C3.64595 6.34049 3.11194 7.79681 3.11042 9.30225V12.681C2.49066 12.9002 1.95385 13.3058 1.57357 13.8422C1.1933 14.3787 0.988176 15.0196 0.986328 15.6772V17.8022C0.986328 18.084 1.09822 18.3543 1.29739 18.5535C1.49657 18.7528 1.7667 18.8647 2.04837 18.8647H5.3832C5.62777 19.7651 6.16168 20.5599 6.90255 21.1265C7.64343 21.6932 8.55011 22.0002 9.48269 22.0002C10.4153 22.0002 11.3219 21.6932 12.0628 21.1265C12.8037 20.5599 13.3376 19.7651 13.5822 18.8647H16.917C17.1987 18.8647 17.4688 18.7528 17.668 18.5535C17.8672 18.3543 17.9791 18.084 17.9791 17.8022V15.6772C17.9772 15.0196 17.7721 14.3787 17.3918 13.8422C17.0115 13.3058 16.4747 12.9002 15.855 12.681ZM5.23451 9.30225C5.23451 8.17508 5.68208 7.09407 6.47877 6.29704C7.27546 5.50001 8.356 5.05225 9.48269 5.05225C10.6094 5.05225 11.6899 5.50001 12.4866 6.29704C13.2833 7.09407 13.7309 8.17508 13.7309 9.30225V12.4897H5.23451V9.30225ZM9.48269 19.9272C9.11201 19.925 8.74836 19.8258 8.4279 19.6394C8.10744 19.453 7.84131 19.1859 7.65597 18.8647H11.3094C11.1241 19.1859 10.8579 19.453 10.5375 19.6394C10.217 19.8258 9.85337 19.925 9.48269 19.9272ZM15.855 16.7397H3.11042V15.6772C3.11042 15.3955 3.22231 15.1252 3.42148 14.9259C3.62066 14.7267 3.89079 14.6147 4.17246 14.6147H14.7929C15.0746 14.6147 15.3447 14.7267 15.5439 14.9259C15.7431 15.1252 15.855 15.3955 15.855 15.6772V16.7397Z" fill="#495057" fill-opacity="0.85"/>
</svg>
