<svg width="20" height="20" viewBox="0 0 20 20" fill="none" xmlns="http://www.w3.org/2000/svg">
<path d="M16.6668 9.99984C16.6668 9.77882 16.579 9.56686 16.4228 9.41058C16.2665 9.2543 16.0545 9.1665 15.8335 9.1665H9.5085L11.4252 7.25817C11.5029 7.18047 11.5645 7.08823 11.6065 6.98671C11.6486 6.88519 11.6702 6.77639 11.6702 6.6665C11.6702 6.55662 11.6486 6.44781 11.6065 6.3463C11.5645 6.24478 11.5029 6.15254 11.4252 6.07484C11.3475 5.99714 11.2552 5.9355 11.1537 5.89345C11.0522 5.8514 10.9434 5.82976 10.8335 5.82976C10.7236 5.82976 10.6148 5.8514 10.5133 5.89345C10.4118 5.9355 10.3195 5.99714 10.2418 6.07484L6.9085 9.40817C6.83263 9.48742 6.77316 9.58088 6.7335 9.68317C6.65015 9.88606 6.65015 10.1136 6.7335 10.3165C6.77316 10.4188 6.83263 10.5123 6.9085 10.5915L10.2418 13.9248C10.3193 14.0029 10.4115 14.0649 10.513 14.1072C10.6146 14.1496 10.7235 14.1713 10.8335 14.1713C10.9435 14.1713 11.0524 14.1496 11.154 14.1072C11.2555 14.0649 11.3477 14.0029 11.4252 13.9248C11.5033 13.8474 11.5653 13.7552 11.6076 13.6537C11.6499 13.5521 11.6717 13.4432 11.6717 13.3332C11.6717 13.2232 11.6499 13.1142 11.6076 13.0127C11.5653 12.9111 11.5033 12.819 11.4252 12.7415L9.5085 10.8332H15.8335C16.0545 10.8332 16.2665 10.7454 16.4228 10.5891C16.579 10.4328 16.6668 10.2209 16.6668 9.99984ZM14.1668 1.6665H5.8335C5.17045 1.6665 4.53457 1.9299 4.06573 2.39874C3.59689 2.86758 3.3335 3.50346 3.3335 4.1665V15.8332C3.3335 16.4962 3.59689 17.1321 4.06573 17.6009C4.53457 18.0698 5.17045 18.3332 5.8335 18.3332H14.1668C14.8299 18.3332 15.4658 18.0698 15.9346 17.6009C16.4034 17.1321 16.6668 16.4962 16.6668 15.8332V13.3332C16.6668 13.1122 16.579 12.9002 16.4228 12.7439C16.2665 12.5876 16.0545 12.4998 15.8335 12.4998C15.6125 12.4998 15.4005 12.5876 15.2442 12.7439C15.088 12.9002 15.0002 13.1122 15.0002 13.3332V15.8332C15.0002 16.0542 14.9124 16.2661 14.7561 16.4224C14.5998 16.5787 14.3878 16.6665 14.1668 16.6665H5.8335C5.61248 16.6665 5.40052 16.5787 5.24424 16.4224C5.08796 16.2661 5.00016 16.0542 5.00016 15.8332V4.1665C5.00016 3.94549 5.08796 3.73353 5.24424 3.57725C5.40052 3.42097 5.61248 3.33317 5.8335 3.33317H14.1668C14.3878 3.33317 14.5998 3.42097 14.7561 3.57725C14.9124 3.73353 15.0002 3.94549 15.0002 4.1665V6.6665C15.0002 6.88752 15.088 7.09948 15.2442 7.25576C15.4005 7.41204 15.6125 7.49984 15.8335 7.49984C16.0545 7.49984 16.2665 7.41204 16.4228 7.25576C16.579 7.09948 16.6668 6.88752 16.6668 6.6665V4.1665C16.6668 3.50346 16.4034 2.86758 15.9346 2.39874C15.4658 1.9299 14.8299 1.6665 14.1668 1.6665Z" fill="white"/>
</svg>
