<svg width="20" height="21" viewBox="0 0 20 21" fill="none" xmlns="http://www.w3.org/2000/svg">
<path d="M9.27012 13.5107C9.22725 13.5582 9.1873 13.6083 9.15049 13.6607C9.11276 13.7164 9.08259 13.777 9.06077 13.8407C9.03203 13.8974 9.01187 13.9581 9.00095 14.0207C8.99606 14.0873 8.99606 14.1541 9.00095 14.2207C8.99759 14.3519 9.0249 14.482 9.08071 14.6007C9.12548 14.7248 9.19691 14.8375 9.28994 14.9308C9.38298 15.0241 9.49533 15.0958 9.61904 15.1407C9.73837 15.1936 9.8674 15.2209 9.99787 15.2209C10.1283 15.2209 10.2574 15.1936 10.3767 15.1407C10.5004 15.0958 10.6128 15.0241 10.7058 14.9308C10.7988 14.8375 10.8703 14.7248 10.915 14.6007C10.9593 14.4791 10.9796 14.3501 10.9748 14.2207C10.9756 14.0891 10.9505 13.9586 10.9008 13.8368C10.8512 13.715 10.7781 13.6041 10.6857 13.5107C10.5931 13.417 10.4828 13.3426 10.3613 13.2918C10.2398 13.241 10.1095 13.2149 9.97793 13.2149C9.84633 13.2149 9.71602 13.241 9.59454 13.2918C9.47306 13.3426 9.3628 13.417 9.27012 13.5107ZM9.97793 0.220703C8.00622 0.220703 6.07879 0.807193 4.43937 1.90601C2.79996 3.00482 1.52219 4.56661 0.767649 6.39387C0.0131085 8.22113 -0.184314 10.2318 0.200348 12.1716C0.585009 14.1114 1.53448 15.8932 2.92869 17.2918C4.32289 18.6903 6.09923 19.6427 8.03305 20.0286C9.96687 20.4144 11.9713 20.2164 13.793 19.4595C15.6146 18.7026 17.1715 17.4209 18.267 15.7764C19.3624 14.1319 19.9471 12.1985 19.9471 10.2207C19.9471 8.90748 19.6892 7.60712 19.1882 6.39387C18.6872 5.18061 17.9529 4.07822 17.0272 3.14964C16.1015 2.22105 15.0025 1.48445 13.793 0.981908C12.5834 0.479361 11.2871 0.220703 9.97793 0.220703ZM9.97793 18.2207C8.40056 18.2207 6.85862 17.7515 5.54709 16.8725C4.23555 15.9934 3.21334 14.744 2.60971 13.2822C2.00607 11.8204 1.84814 10.2118 2.15586 8.65998C2.46359 7.10813 3.22317 5.68267 4.33853 4.56385C5.4539 3.44503 6.87497 2.6831 8.42202 2.37442C9.96908 2.06574 11.5727 2.22417 13.0299 2.82967C14.4872 3.43517 15.7328 4.46055 16.6092 5.77614C17.4855 7.09173 17.9532 8.63845 17.9532 10.2207C17.9532 12.3424 17.113 14.3773 15.6173 15.8776C14.1217 17.3778 12.0931 18.2207 9.97793 18.2207ZM9.97793 5.2207C9.45262 5.22037 8.93649 5.35882 8.48147 5.62215C8.02646 5.88547 7.64861 6.26436 7.38595 6.7207C7.31382 6.83452 7.26539 6.9618 7.24357 7.09488C7.22175 7.22796 7.22699 7.36409 7.25898 7.49509C7.29096 7.62609 7.34904 7.74924 7.4297 7.85714C7.51037 7.96504 7.61196 8.05545 7.72836 8.12295C7.84477 8.19044 7.97358 8.23362 8.10705 8.24988C8.24053 8.26614 8.3759 8.25516 8.50503 8.21758C8.63416 8.18 8.75437 8.11661 8.85844 8.03122C8.96252 7.94583 9.04829 7.84021 9.11061 7.7207C9.19845 7.5681 9.32492 7.44148 9.47723 7.35368C9.62953 7.26588 9.80226 7.22 9.97793 7.2207C10.2423 7.2207 10.4959 7.32606 10.6829 7.5136C10.8698 7.70113 10.9748 7.95549 10.9748 8.2207C10.9748 8.48592 10.8698 8.74027 10.6829 8.92781C10.4959 9.11535 10.2423 9.2207 9.97793 9.2207C9.71353 9.2207 9.45996 9.32606 9.27301 9.5136C9.08605 9.70113 8.98102 9.95549 8.98102 10.2207V11.2207C8.98102 11.4859 9.08605 11.7403 9.27301 11.9278C9.45996 12.1153 9.71353 12.2207 9.97793 12.2207C10.2423 12.2207 10.4959 12.1153 10.6829 11.9278C10.8698 11.7403 10.9748 11.4859 10.9748 11.2207V11.0407C11.6342 10.8007 12.1884 10.3359 12.5408 9.72757C12.8931 9.11921 13.021 8.40599 12.9023 7.71259C12.7835 7.01919 12.4256 6.38972 11.891 5.93422C11.3564 5.47872 10.6793 5.22616 9.97793 5.2207Z" fill="#495057" fill-opacity="0.85"/>
</svg>
