<svg width="26" height="22" viewBox="0 0 26 22" fill="none" xmlns="http://www.w3.org/2000/svg">
<path d="M11.6743 5.08019C12.1127 5.02642 12.5557 4.99967 12.9993 5.00019C16.9743 5.00019 20.7118 7.29018 22.8868 11.0002C22.5541 11.5648 22.1784 12.1125 21.7618 12.6402C21.6295 12.804 21.56 12.9952 21.5618 13.1902C21.5645 13.4084 21.6565 13.6199 21.8236 13.7925C21.9907 13.965 22.2237 14.089 22.4872 14.1457C22.7506 14.2024 23.03 14.1885 23.2827 14.1063C23.5354 14.024 23.7476 13.8779 23.8868 13.6902C24.4692 12.9581 24.975 12.1888 25.3993 11.3902C25.4663 11.2654 25.5009 11.131 25.5009 10.9952C25.5009 10.8594 25.4663 10.725 25.3993 10.6002C22.8743 5.91019 18.1243 3.00019 12.9993 3.00019C12.4126 2.99782 11.8269 3.03798 11.2493 3.12019C11.0851 3.14251 10.9281 3.19048 10.7871 3.26136C10.6461 3.33224 10.524 3.42464 10.4276 3.53329C10.3313 3.64193 10.2626 3.76469 10.2256 3.89456C10.1885 4.02443 10.1838 4.15886 10.2118 4.29019C10.2397 4.42151 10.2996 4.54715 10.3882 4.65993C10.4768 4.77271 10.5923 4.87043 10.7281 4.9475C10.8639 5.02457 11.0174 5.07949 11.1797 5.10912C11.3421 5.13875 11.5101 5.14251 11.6743 5.12019V5.08019ZM2.63676 1.29019C2.52021 1.19695 2.38184 1.12299 2.22957 1.07253C2.07729 1.02207 1.91408 0.996094 1.74926 0.996094C1.58443 0.996094 1.42122 1.02207 1.26894 1.07253C1.11667 1.12299 0.978303 1.19695 0.861755 1.29019C0.626375 1.47849 0.494141 1.73388 0.494141 2.00019C0.494141 2.26649 0.626375 2.52188 0.861755 2.71019L4.73676 5.80019C2.96872 7.16171 1.56158 8.79417 0.599255 10.6002C0.530426 10.7264 0.494899 10.8625 0.494899 11.0002C0.494899 11.1378 0.530426 11.274 0.599255 11.4002C3.12426 16.0902 7.87426 19.0002 12.9993 19.0002C15.2456 18.9878 17.439 18.4527 19.3118 17.4602L23.3618 20.7102C23.478 20.8039 23.6162 20.8783 23.7685 20.9291C23.9209 20.9798 24.0842 21.006 24.2493 21.006C24.4143 21.006 24.5777 20.9798 24.73 20.9291C24.8823 20.8783 25.0206 20.8039 25.1368 20.7102C25.2539 20.6172 25.3469 20.5066 25.4104 20.3848C25.4738 20.2629 25.5065 20.1322 25.5065 20.0002C25.5065 19.8682 25.4738 19.7375 25.4104 19.6156C25.3469 19.4937 25.2539 19.3831 25.1368 19.2902L2.63676 1.29019ZM10.5868 10.4802L13.6493 12.9302C13.438 12.9787 13.219 13.0022 12.9993 13.0002C12.3362 13.0002 11.7003 12.7895 11.2315 12.4144C10.7626 12.0393 10.4993 11.5306 10.4993 11.0002C10.4967 10.8244 10.5262 10.6492 10.5868 10.4802ZM12.9993 17.0002C9.02426 17.0002 5.28676 14.7102 3.12426 11.0002C3.93187 9.57393 5.07809 8.28676 6.49926 7.21019L8.71176 9.00019C8.19206 9.75898 7.99393 10.6321 8.14708 11.4886C8.30023 12.3452 8.7964 13.1388 9.56116 13.7507C10.3259 14.3625 11.318 14.7594 12.3887 14.8819C13.4593 15.0044 14.5508 14.8459 15.4993 14.4302L17.4868 16.0002C16.1256 16.6411 14.5785 16.9858 12.9993 17.0002Z" fill="#5977A9"/>
</svg>
