<svg width="10" height="7" viewBox="0 0 10 7" fill="none" xmlns="http://www.w3.org/2000/svg">
<path d="M2.74984 1.5385C2.74984 1.5753 2.7915 1.61209 2.83317 1.64888L3.6665 2.38471C3.74984 2.45829 3.83317 2.49508 3.95817 2.49508C4.08317 2.49508 4.1665 2.45829 4.24984 2.38471C4.4165 2.23754 4.4165 2.01679 4.24984 1.86963L4.12484 1.75925H5.87484L5.74984 1.86963C5.6665 1.94321 5.62484 2.01679 5.62484 2.12717C5.62484 2.34792 5.7915 2.49508 6.0415 2.49508C6.1665 2.49508 6.24984 2.45829 6.33317 2.38471L7.1665 1.64888C7.20817 1.61209 7.24984 1.5753 7.24984 1.5385C7.24984 1.50171 7.2915 1.46492 7.2915 1.39134C7.2915 1.35455 7.2915 1.28097 7.24984 1.24417C7.20817 1.20738 7.20817 1.17059 7.1665 1.1338L6.33317 0.397972C6.1665 0.250806 5.9165 0.250806 5.74984 0.397972C5.58317 0.545137 5.58317 0.765886 5.74984 0.913051L5.87484 1.02343H4.12484L4.24984 0.913051C4.4165 0.765886 4.4165 0.545137 4.24984 0.397972C4.08317 0.250806 3.83317 0.250806 3.6665 0.397972L2.83317 1.1338C2.7915 1.17059 2.74984 1.20738 2.74984 1.24417C2.74984 1.28097 2.70817 1.31776 2.70817 1.39134C2.70817 1.42813 2.70817 1.50171 2.74984 1.5385ZM2.49984 4.40823C3.08317 4.40823 3.58317 3.96674 3.58317 3.45166C3.58317 2.93658 3.08317 2.49508 2.49984 2.49508C1.9165 2.49508 1.4165 2.93658 1.4165 3.45166C1.4165 3.96674 1.9165 4.40823 2.49984 4.40823ZM4.08317 5.4016C2.99984 4.62898 1.4165 4.77615 0.541504 5.73272C0.458171 5.8431 0.416504 5.95347 0.416504 6.06385C0.416504 6.32139 0.666504 6.54213 0.958171 6.54213H4.0415C4.24984 6.54213 4.45817 6.43176 4.5415 6.28459C4.62484 6.13743 4.62484 5.91668 4.45817 5.76951C4.33317 5.62235 4.20817 5.51197 4.08317 5.4016ZM6.4165 3.45166C6.4165 3.96674 6.9165 4.40823 7.49984 4.40823C8.08317 4.40823 8.58317 3.96674 8.58317 3.45166C8.58317 2.93658 8.08317 2.49508 7.49984 2.49508C6.9165 2.49508 6.4165 2.93658 6.4165 3.45166ZM9.45817 5.76951C9.33317 5.65914 9.20817 5.51197 9.08317 5.43839C7.99984 4.66577 6.4165 4.81294 5.5415 5.76951C5.45817 5.8431 5.4165 5.95347 5.4165 6.06385C5.4165 6.32139 5.6665 6.54213 5.95817 6.54213H9.0415C9.24984 6.54213 9.45817 6.43176 9.5415 6.28459C9.62484 6.10064 9.58317 5.91668 9.45817 5.76951Z" fill="#2D4F96"/>
</svg>
