<svg width="8" height="8" viewBox="0 0 8 8" fill="none" xmlns="http://www.w3.org/2000/svg">
<path d="M7.86858 5.88399L6.79337 4.916C6.75206 4.8785 6.70292 4.84875 6.64878 4.82844C6.59464 4.80813 6.53657 4.79768 6.47791 4.79768C6.41926 4.79768 6.36119 4.80813 6.30704 4.82844C6.2529 4.84875 6.20376 4.8785 6.16246 4.916L4.57186 6.34799C4.53068 6.38537 4.4981 6.4297 4.47599 6.47843C4.45388 6.52717 4.44268 6.57935 4.44301 6.63199V7.59999C4.44301 7.70608 4.48982 7.80782 4.57315 7.88284C4.65647 7.95785 4.76948 7.99999 4.88731 7.99999H5.96252C6.021 8.0003 6.07896 7.99021 6.13309 7.9703C6.18723 7.9504 6.23646 7.92107 6.27798 7.88399L7.86858 6.45199C7.91022 6.41481 7.94327 6.37057 7.96583 6.32183C7.98839 6.27308 8 6.2208 8 6.16799C8 6.11519 7.98839 6.06291 7.96583 6.01416C7.94327 5.96542 7.91022 5.92118 7.86858 5.88399ZM5.77592 7.19999H5.33162V6.79999L6.47791 5.76799L6.92221 6.16799L5.77592 7.19999ZM3.11011 7.19999H1.3329C1.21507 7.19999 1.10206 7.15785 1.01874 7.08284C0.935413 7.00782 0.888603 6.90608 0.888603 6.79999V1.2C0.888603 1.09391 0.935413 0.992171 1.01874 0.917157C1.10206 0.842142 1.21507 0.799999 1.3329 0.799999H3.55441V2C3.55441 2.31826 3.69484 2.62348 3.94481 2.84853C4.19478 3.07357 4.53381 3.2 4.88731 3.2H6.22022V3.6C6.22022 3.70608 6.26703 3.80782 6.35035 3.88284C6.43367 3.95785 6.54668 4 6.66452 4C6.78236 4 6.89537 3.95785 6.97869 3.88284C7.06201 3.80782 7.10882 3.70608 7.10882 3.6V2.8C7.10882 2.8 7.10882 2.8 7.10882 2.776C7.10419 2.73925 7.09526 2.70305 7.08216 2.668V2.632C7.0608 2.59087 7.0323 2.55306 6.99775 2.52L4.33194 0.12C4.29521 0.0888864 4.25322 0.0632323 4.20753 0.0439999C4.19427 0.042304 4.18081 0.042304 4.16755 0.0439999L4.02537 0H1.3329C0.979396 0 0.640367 0.126428 0.390399 0.351472C0.140431 0.576515 0 0.881739 0 1.2V6.79999C0 7.11825 0.140431 7.42348 0.390399 7.64852C0.640367 7.87356 0.979396 7.99999 1.3329 7.99999H3.11011C3.22795 7.99999 3.34095 7.95785 3.42428 7.88284C3.5076 7.80782 3.55441 7.70608 3.55441 7.59999C3.55441 7.49391 3.5076 7.39217 3.42428 7.31715C3.34095 7.24214 3.22795 7.19999 3.11011 7.19999ZM4.44301 1.364L5.59375 2.4H4.88731C4.76948 2.4 4.65647 2.35786 4.57315 2.28284C4.48982 2.20783 4.44301 2.10608 4.44301 2V1.364ZM2.22151 4.8H4.88731C5.00515 4.8 5.11816 4.75785 5.20148 4.68284C5.28481 4.60782 5.33162 4.50608 5.33162 4.4C5.33162 4.29391 5.28481 4.19217 5.20148 4.11715C5.11816 4.04214 5.00515 4 4.88731 4H2.22151C2.10367 4 1.99066 4.04214 1.90734 4.11715C1.82402 4.19217 1.77721 4.29391 1.77721 4.4C1.77721 4.50608 1.82402 4.60782 1.90734 4.68284C1.99066 4.75785 2.10367 4.8 2.22151 4.8ZM2.22151 3.2H2.66581C2.78364 3.2 2.89665 3.15785 2.97998 3.08284C3.0633 3.00783 3.11011 2.90608 3.11011 2.8C3.11011 2.69391 3.0633 2.59217 2.97998 2.51716C2.89665 2.44214 2.78364 2.4 2.66581 2.4H2.22151C2.10367 2.4 1.99066 2.44214 1.90734 2.51716C1.82402 2.59217 1.77721 2.69391 1.77721 2.8C1.77721 2.90608 1.82402 3.00783 1.90734 3.08284C1.99066 3.15785 2.10367 3.2 2.22151 3.2ZM3.11011 5.6H2.22151C2.10367 5.6 1.99066 5.64214 1.90734 5.71715C1.82402 5.79217 1.77721 5.89391 1.77721 5.99999C1.77721 6.10608 1.82402 6.20782 1.90734 6.28284C1.99066 6.35785 2.10367 6.39999 2.22151 6.39999H3.11011C3.22795 6.39999 3.34095 6.35785 3.42428 6.28284C3.5076 6.20782 3.55441 6.10608 3.55441 5.99999C3.55441 5.89391 3.5076 5.79217 3.42428 5.71715C3.34095 5.64214 3.22795 5.6 3.11011 5.6Z" fill="#2D4F96"/>
</svg>
