<svg width="10" height="10" viewBox="0 0 10 10" fill="none" xmlns="http://www.w3.org/2000/svg">
<path d="M5.82263 5.00011L9.49763 1.33094C9.60747 1.2211 9.66918 1.07212 9.66918 0.916775C9.66918 0.761432 9.60747 0.612452 9.49763 0.502608C9.38778 0.392764 9.2388 0.331055 9.08346 0.331055C8.92812 0.331055 8.77914 0.392764 8.66929 0.502608L5.00013 4.17761L1.33096 0.502608C1.22112 0.392764 1.07214 0.331055 0.916794 0.331055C0.761451 0.331055 0.612471 0.392764 0.502627 0.502608C0.392783 0.612452 0.331074 0.761432 0.331074 0.916775C0.331074 1.07212 0.392783 1.2211 0.502627 1.33094L4.17763 5.00011L0.502627 8.66927C0.447952 8.7235 0.404556 8.78802 0.374941 8.8591C0.345326 8.93019 0.330078 9.00643 0.330078 9.08344C0.330078 9.16045 0.345326 9.23669 0.374941 9.30778C0.404556 9.37886 0.447952 9.44338 0.502627 9.49761C0.556856 9.55228 0.621373 9.59568 0.692457 9.62529C0.763542 9.65491 0.839787 9.67016 0.916794 9.67016C0.993801 9.67016 1.07005 9.65491 1.14113 9.62529C1.21221 9.59568 1.27673 9.55228 1.33096 9.49761L5.00013 5.82261L8.66929 9.49761C8.72352 9.55228 8.78804 9.59568 8.85912 9.62529C8.93021 9.65491 9.00645 9.67016 9.08346 9.67016C9.16047 9.67016 9.23671 9.65491 9.3078 9.62529C9.37888 9.59568 9.4434 9.55228 9.49763 9.49761C9.5523 9.44338 9.5957 9.37886 9.62531 9.30778C9.65493 9.23669 9.67018 9.16045 9.67018 9.08344C9.67018 9.00643 9.65493 8.93019 9.62531 8.8591C9.5957 8.78802 9.5523 8.7235 9.49763 8.66927L5.82263 5.00011Z" fill="#F46A6A"/>
</svg>
