<svg width="8" height="7" viewBox="0 0 8 7" fill="none" xmlns="http://www.w3.org/2000/svg">
<path d="M7.81674 0.20257C7.76382 0.138382 7.70087 0.0874352 7.6315 0.0526676C7.56213 0.0178999 7.48773 0 7.41258 0C7.33744 0 7.26303 0.0178999 7.19367 0.0526676C7.1243 0.0874352 7.06134 0.138382 7.00842 0.20257L2.7676 5.31136L0.985878 3.16101C0.930934 3.09716 0.866074 3.04695 0.795002 3.01326C0.723929 2.97956 0.648036 2.96304 0.571655 2.96463C0.495274 2.96622 0.419902 2.98589 0.349841 3.02252C0.27978 3.05916 0.216402 3.11203 0.163327 3.17813C0.110252 3.24423 0.0685192 3.32226 0.0405104 3.40777C0.0125016 3.49327 -0.00123442 3.58457 8.70471e-05 3.67646C0.00140852 3.76835 0.0177615 3.85903 0.0482121 3.94332C0.0786626 4.02761 0.122615 4.10385 0.177558 4.1677L2.36344 6.79743C2.41635 6.86162 2.47931 6.91257 2.54868 6.94733C2.61805 6.9821 2.69245 7 2.7676 7C2.84274 7 2.91714 6.9821 2.98651 6.94733C3.05588 6.91257 3.11884 6.86162 3.17175 6.79743L7.81674 1.20926C7.87452 1.14513 7.92064 1.0673 7.95218 0.980672C7.98372 0.894042 8 0.800492 8 0.705916C8 0.611341 7.98372 0.51779 7.95218 0.43116C7.92064 0.34453 7.87452 0.266698 7.81674 0.20257Z" fill="#34C38F"/>
</svg>
