<svg width="8" height="8" viewBox="0 0 8 8" fill="none" xmlns="http://www.w3.org/2000/svg">
<path d="M4 0C3.20888 0 2.43552 0.234596 1.77772 0.674121C1.11992 1.11365 0.607234 1.73836 0.304484 2.46927C0.00173314 3.20017 -0.0774802 4.00444 0.0768607 4.78036C0.231202 5.55628 0.612164 6.26902 1.17157 6.82843C1.73098 7.38784 2.44372 7.7688 3.21964 7.92314C3.99556 8.07748 4.79983 7.99827 5.53073 7.69552C6.26164 7.39277 6.88635 6.88008 7.32588 6.22228C7.7654 5.56448 8 4.79112 8 4C8 3.47471 7.89654 2.95457 7.69552 2.46927C7.4945 1.98396 7.19986 1.54301 6.82843 1.17157C6.45699 0.800138 6.01604 0.505501 5.53073 0.304482C5.04543 0.103463 4.52529 0 4 0ZM4 7.2C3.3671 7.2 2.74841 7.01232 2.22218 6.6607C1.69594 6.30908 1.28579 5.80931 1.04359 5.22459C0.801387 4.63986 0.738016 3.99645 0.861489 3.37571C0.984961 2.75497 1.28973 2.18479 1.73726 1.73726C2.18479 1.28973 2.75497 0.98496 3.37571 0.861487C3.99645 0.738014 4.63986 0.801385 5.22459 1.04359C5.80931 1.28579 6.30908 1.69594 6.6607 2.22217C7.01232 2.74841 7.2 3.3671 7.2 4C7.2 4.84869 6.86286 5.66262 6.26274 6.26274C5.66263 6.86286 4.84869 7.2 4 7.2ZM4.4 3.972V2C4.4 1.89391 4.35786 1.79217 4.28284 1.71716C4.20783 1.64214 4.10609 1.6 4 1.6C3.89391 1.6 3.79217 1.64214 3.71716 1.71716C3.64214 1.79217 3.6 1.89391 3.6 2V4C3.6 4 3.6 4.028 3.6 4.044C3.59016 4.12531 3.60552 4.20769 3.644 4.28L4.244 5.32C4.29704 5.41229 4.38458 5.47974 4.48735 5.50749C4.59012 5.53525 4.69971 5.52104 4.792 5.468C4.8843 5.41496 4.95174 5.32742 4.9795 5.22465C5.00725 5.12188 4.99304 5.01229 4.94 4.92L4.4 3.972Z" fill="#ECBC40"/>
</svg>
