<svg width="10" height="7" viewBox="0 0 10 7" fill="none" xmlns="http://www.w3.org/2000/svg">
<path d="M2.75033 1.5385C2.75033 1.5753 2.79199 1.61209 2.83366 1.64888L3.66699 2.38471C3.75033 2.45829 3.83366 2.49508 3.95866 2.49508C4.08366 2.49508 4.16699 2.45829 4.25033 2.38471C4.41699 2.23754 4.41699 2.01679 4.25033 1.86963L4.12533 1.75925H5.87533L5.75033 1.86963C5.66699 1.94321 5.62533 2.01679 5.62533 2.12717C5.62533 2.34792 5.79199 2.49508 6.04199 2.49508C6.16699 2.49508 6.25032 2.45829 6.33366 2.38471L7.16699 1.64888C7.20866 1.61209 7.25032 1.5753 7.25032 1.5385C7.25032 1.50171 7.29199 1.46492 7.29199 1.39134C7.29199 1.35455 7.29199 1.28097 7.25032 1.24417C7.20866 1.20738 7.20866 1.17059 7.16699 1.1338L6.33366 0.397972C6.16699 0.250806 5.91699 0.250806 5.75033 0.397972C5.58366 0.545137 5.58366 0.765886 5.75033 0.913051L5.87533 1.02343H4.12533L4.25033 0.913051C4.41699 0.765886 4.41699 0.545137 4.25033 0.397972C4.08366 0.250806 3.83366 0.250806 3.66699 0.397972L2.83366 1.1338C2.79199 1.17059 2.75033 1.20738 2.75033 1.24417C2.75033 1.28097 2.70866 1.31776 2.70866 1.39134C2.70866 1.42813 2.70866 1.50171 2.75033 1.5385ZM2.50033 4.40823C3.08366 4.40823 3.58366 3.96674 3.58366 3.45166C3.58366 2.93658 3.08366 2.49508 2.50033 2.49508C1.91699 2.49508 1.41699 2.93658 1.41699 3.45166C1.41699 3.96674 1.91699 4.40823 2.50033 4.40823ZM4.08366 5.4016C3.00033 4.62898 1.41699 4.77615 0.541992 5.73272C0.458659 5.8431 0.416992 5.95347 0.416992 6.06385C0.416992 6.32139 0.666992 6.54213 0.958659 6.54213H4.04199C4.25033 6.54213 4.45866 6.43176 4.54199 6.28459C4.62532 6.13743 4.62533 5.91668 4.45866 5.76951C4.33366 5.62235 4.20866 5.51197 4.08366 5.4016ZM6.41699 3.45166C6.41699 3.96674 6.91699 4.40823 7.50032 4.40823C8.08366 4.40823 8.58366 3.96674 8.58366 3.45166C8.58366 2.93658 8.08366 2.49508 7.50032 2.49508C6.91699 2.49508 6.41699 2.93658 6.41699 3.45166ZM9.45866 5.76951C9.33366 5.65914 9.20866 5.51197 9.08366 5.43839C8.00032 4.66577 6.41699 4.81294 5.54199 5.76951C5.45866 5.8431 5.41699 5.95347 5.41699 6.06385C5.41699 6.32139 5.66699 6.54213 5.95866 6.54213H9.04199C9.25032 6.54213 9.45866 6.43176 9.54199 6.28459C9.62532 6.10064 9.58366 5.91668 9.45866 5.76951Z" fill="#2D4F96"/>
</svg>
