<svg width="10" height="10" viewBox="0 0 10 10" fill="none" xmlns="http://www.w3.org/2000/svg">
<path d="M6.5462 5.29584C6.9547 4.97445 7.25286 4.53373 7.39921 4.03499C7.54557 3.53625 7.53283 3.00429 7.36278 2.51312C7.19272 2.02196 6.8738 1.59601 6.45039 1.29453C6.02698 0.993061 5.52014 0.831055 5.00037 0.831055C4.48059 0.831055 3.97375 0.993061 3.55034 1.29453C3.12693 1.59601 2.80801 2.02196 2.63795 2.51312C2.4679 3.00429 2.45516 3.53625 2.60152 4.03499C2.74787 4.53373 3.04603 4.97445 3.45453 5.29584C2.75456 5.57628 2.14382 6.04141 1.6874 6.64164C1.23099 7.24188 0.946016 7.95472 0.862865 8.70418C0.856846 8.7589 0.861663 8.81426 0.877042 8.86712C0.892421 8.91997 0.91806 8.96928 0.952495 9.01223C1.02204 9.09897 1.12319 9.15452 1.2337 9.16668C1.34421 9.17883 1.45501 9.14659 1.54175 9.07705C1.62849 9.0075 1.68404 8.90635 1.6962 8.79584C1.78769 7.98134 2.17607 7.2291 2.78712 6.68284C3.39818 6.13658 4.18907 5.83461 5.0087 5.83461C5.82832 5.83461 6.61922 6.13658 7.23027 6.68284C7.84133 7.2291 8.2297 7.98134 8.3212 8.79584C8.33253 8.89823 8.38138 8.99279 8.45833 9.06127C8.53527 9.12975 8.63486 9.1673 8.73786 9.16668H8.7837C8.89292 9.15411 8.99275 9.09888 9.06143 9.01303C9.13011 8.92718 9.16208 8.81766 9.15036 8.70834C9.06682 7.95676 8.78031 7.24209 8.32155 6.64093C7.86279 6.03977 7.24908 5.57479 6.5462 5.29584V5.29584ZM5.00037 5.00001C4.67073 5.00001 4.3485 4.90226 4.07441 4.71913C3.80033 4.53599 3.58671 4.27569 3.46057 3.97115C3.33442 3.66661 3.30141 3.3315 3.36572 3.00819C3.43003 2.68489 3.58877 2.38792 3.82185 2.15483C4.05494 1.92175 4.35191 1.76301 4.67521 1.6987C4.99852 1.63439 5.33363 1.6674 5.63817 1.79355C5.94271 1.91969 6.20301 2.13331 6.38615 2.40739C6.56928 2.68148 6.66703 3.00371 6.66703 3.33334C6.66703 3.77537 6.49144 4.1993 6.17888 4.51186C5.86632 4.82442 5.44239 5.00001 5.00037 5.00001Z" fill="#2D4F96"/>
</svg>
