<svg width="10" height="8" viewBox="0 0 10 8" fill="none" xmlns="http://www.w3.org/2000/svg">
<path d="M7.91634 0.25H2.08301C1.75149 0.25 1.43354 0.381696 1.19912 0.616117C0.964704 0.850537 0.833008 1.16848 0.833008 1.5V4.83333C0.833008 5.16485 0.964704 5.4828 1.19912 5.71722C1.43354 5.95164 1.75149 6.08333 2.08301 6.08333H4.58301V6.91667H2.91634C2.80583 6.91667 2.69985 6.96056 2.62171 7.03871C2.54357 7.11685 2.49967 7.22283 2.49967 7.33333C2.49967 7.44384 2.54357 7.54982 2.62171 7.62796C2.69985 7.7061 2.80583 7.75 2.91634 7.75H7.08301C7.19351 7.75 7.2995 7.7061 7.37764 7.62796C7.45578 7.54982 7.49967 7.44384 7.49967 7.33333C7.49967 7.22283 7.45578 7.11685 7.37764 7.03871C7.2995 6.96056 7.19351 6.91667 7.08301 6.91667H5.41634V6.08333H7.91634C8.24786 6.08333 8.5658 5.95164 8.80023 5.71722C9.03465 5.4828 9.16634 5.16485 9.16634 4.83333V1.5C9.16634 1.16848 9.03465 0.850537 8.80023 0.616117C8.5658 0.381696 8.24786 0.25 7.91634 0.25ZM8.33301 4.83333C8.33301 4.94384 8.28911 5.04982 8.21097 5.12796C8.13283 5.2061 8.02685 5.25 7.91634 5.25H2.08301C1.9725 5.25 1.86652 5.2061 1.78838 5.12796C1.71024 5.04982 1.66634 4.94384 1.66634 4.83333V1.5C1.66634 1.38949 1.71024 1.28351 1.78838 1.20537C1.86652 1.12723 1.9725 1.08333 2.08301 1.08333H7.91634C8.02685 1.08333 8.13283 1.12723 8.21097 1.20537C8.28911 1.28351 8.33301 1.38949 8.33301 1.5V4.83333Z" fill="#2D4F96"/>
</svg>
