<svg width="8" height="7" viewBox="0 0 8 7" fill="none" xmlns="http://www.w3.org/2000/svg">
<path d="M2.667 6.53517L6.29033 3.24502L7.237 2.40818M2.667 6.53517L2.57109 6.42854L2.61211 6.39151L5.92211 3.40237L6.057 3.28056L6.05818 3.28163L6.20354 3.14943L6.20481 3.14827L6.39341 2.97675L6.86341 2.5493L7.13525 2.30207L7.237 2.40818M2.667 6.53517L2.57059 6.429L0.666998 6.32144C0.666998 6.40128 0.702117 6.47785 0.764629 6.5343C0.827141 6.59075 0.911926 6.62246 1.00033 6.62246H2.41366C2.46031 6.62476 2.50696 6.61817 2.5506 6.60313C2.59425 6.58809 2.6339 6.56494 2.667 6.53517ZM7.237 2.40818L7.13966 2.29806L7.31033 2.30884C7.29221 2.34543 7.26742 2.379 7.237 2.40818Z" fill="#2D4F96" stroke="#2D4F96"/>
</svg>
