<svg width="6" height="6" viewBox="0 0 6 6" fill="none" xmlns="http://www.w3.org/2000/svg">
<path d="M3.46965 3.00006L5.56965 0.903395C5.63242 0.840627 5.66768 0.755496 5.66768 0.666729C5.66768 0.577961 5.63242 0.49283 5.56965 0.430062C5.50689 0.367294 5.42175 0.332031 5.33299 0.332031C5.24422 0.332031 5.15909 0.367294 5.09632 0.430062L2.99965 2.53006L0.902987 0.430062C0.84022 0.367294 0.755088 0.332031 0.666321 0.332031C0.577554 0.332031 0.492422 0.367294 0.429654 0.430062C0.366886 0.49283 0.331624 0.577961 0.331624 0.666729C0.331624 0.755496 0.366886 0.840627 0.429654 0.903395L2.52965 3.00006L0.429654 5.09673C0.398411 5.12772 0.373613 5.16458 0.35669 5.2052C0.339768 5.24582 0.331055 5.28939 0.331055 5.3334C0.331055 5.3774 0.339768 5.42097 0.35669 5.46159C0.373613 5.50221 0.398411 5.53907 0.429654 5.57006C0.460642 5.6013 0.497509 5.6261 0.538129 5.64303C0.578748 5.65995 0.622317 5.66866 0.666321 5.66866C0.710325 5.66866 0.753893 5.65995 0.794513 5.64303C0.835133 5.6261 0.872 5.6013 0.902987 5.57006L2.99965 3.47006L5.09632 5.57006C5.12731 5.6013 5.16418 5.6261 5.2048 5.64303C5.24542 5.65995 5.28898 5.66866 5.33299 5.66866C5.37699 5.66866 5.42056 5.65995 5.46118 5.64303C5.5018 5.6261 5.53867 5.6013 5.56965 5.57006C5.6009 5.53907 5.6257 5.50221 5.64262 5.46159C5.65954 5.42097 5.66825 5.3774 5.66825 5.3334C5.66825 5.28939 5.65954 5.24582 5.64262 5.2052C5.6257 5.16458 5.6009 5.12772 5.56965 5.09673L3.46965 3.00006Z" fill="#F46A6A"/>
</svg>
