<svg width="7" height="7" viewBox="0 0 7 7" fill="none" xmlns="http://www.w3.org/2000/svg">
<path d="M6.81152 2.07189C6.81175 2.03241 6.80418 1.99327 6.78925 1.95672C6.77432 1.92018 6.75232 1.88693 6.72452 1.8589L5.45252 0.586999C5.42449 0.559196 5.39124 0.5372 5.35469 0.522272C5.31814 0.507344 5.279 0.499777 5.23952 0.500005C5.20004 0.499777 5.1609 0.507344 5.12435 0.522272C5.0878 0.5372 5.05455 0.559196 5.02652 0.586999L4.17752 1.43594L0.898528 4.71469C0.870724 4.74272 0.848726 4.77596 0.833797 4.81251C0.818868 4.84906 0.8113 4.8882 0.811528 4.92767V6.19958C0.811528 6.27914 0.843135 6.35544 0.899396 6.4117C0.955657 6.46795 1.03196 6.49956 1.11153 6.49956H2.38353C2.4255 6.50184 2.46749 6.49528 2.50677 6.48029C2.54605 6.4653 2.58174 6.44223 2.61153 6.41256L5.87252 3.13381L6.72452 2.29987C6.7519 2.2708 6.77421 2.23733 6.79052 2.20088C6.79341 2.17697 6.79341 2.15279 6.79052 2.12888C6.79192 2.11492 6.79192 2.10085 6.79052 2.08689L6.81152 2.07189ZM2.26053 5.8996H1.41153V5.05067L4.39052 2.07189L5.23952 2.92082L2.26053 5.8996ZM5.66252 2.49786L4.81352 1.64892L5.23952 1.22595L6.08552 2.07189L5.66252 2.49786Z" fill="white"/>
</svg>
