<svg width="20" height="20" viewBox="0 0 20 20" fill="none" xmlns="http://www.w3.org/2000/svg">
<path d="M19.137 11.5189C19.1337 11.4699 19.1259 11.4213 19.1135 11.3738L17.193 6.25954C17.5425 6.03346 17.8299 5.72356 18.0291 5.35805C18.2283 4.99254 18.3329 4.58302 18.3335 4.16675C18.3335 3.94573 18.2457 3.73377 18.0894 3.57749C17.9331 3.42121 17.7212 3.33341 17.5002 3.33341C17.2791 3.33341 17.0672 3.42121 16.9109 3.57749C16.7546 3.73377 16.6668 3.94573 16.6668 4.16675C16.6668 4.35245 16.6047 4.53282 16.4905 4.67924C16.3762 4.82565 16.2164 4.92974 16.0363 4.97497C15.8562 5.02021 15.6661 5.00402 15.4962 4.92895C15.3264 4.85389 15.1864 4.72427 15.0986 4.56063C14.8848 4.18106 14.5721 3.86651 14.1938 3.65043C13.8155 3.43434 13.3857 3.32479 12.9502 3.33341H10.8335V2.50008C10.8335 2.27907 10.7457 2.06711 10.5894 1.91083C10.4331 1.75455 10.2212 1.66675 10.0002 1.66675C9.77915 1.66675 9.56719 1.75455 9.41091 1.91083C9.25463 2.06711 9.16683 2.27907 9.16683 2.50008V3.33341H7.05016C6.61459 3.32479 6.18481 3.43434 5.80651 3.65043C5.42822 3.86651 5.11553 4.18106 4.9017 4.56063C4.81389 4.72427 4.67395 4.85389 4.50409 4.92895C4.33423 5.00402 4.14417 5.02021 3.96406 4.97497C3.78395 4.92974 3.6241 4.82565 3.50987 4.67924C3.39564 4.53282 3.33356 4.35245 3.3335 4.16675C3.3335 3.94573 3.2457 3.73377 3.08942 3.57749C2.93314 3.42121 2.72118 3.33341 2.50016 3.33341C2.27915 3.33341 2.06719 3.42121 1.91091 3.57749C1.75463 3.73377 1.66683 3.94573 1.66683 4.16675C1.66737 4.58302 1.77201 4.99254 1.97121 5.35805C2.17041 5.72356 2.45785 6.03346 2.80737 6.25954L0.886829 11.3738C0.874501 11.4213 0.866636 11.4699 0.863338 11.5189C0.848703 11.5671 0.83871 11.6166 0.833496 11.6667C0.833496 11.6745 0.835738 11.6816 0.835788 11.6893C0.836038 11.7003 0.838288 11.7104 0.839038 11.7214C0.852013 12.5954 1.20833 13.4292 1.831 14.0427C2.45367 14.6562 3.2927 15.0001 4.16683 15.0001C5.04095 15.0001 5.87999 14.6562 6.50266 14.0427C7.12533 13.4292 7.48165 12.5954 7.49462 11.7214C7.49533 11.7104 7.49762 11.7003 7.49787 11.6893C7.49792 11.6816 7.50016 11.6745 7.50016 11.6667C7.49496 11.6166 7.48498 11.5671 7.47035 11.5189C7.46705 11.4699 7.45919 11.4213 7.44686 11.3738L5.52405 6.25359C5.87718 6.02823 6.16778 5.71745 6.36898 5.35001C6.4417 5.23691 6.54297 5.145 6.66257 5.08356C6.78217 5.02212 6.91587 4.99332 7.05016 5.00008H9.16683V16.6667H6.66683C6.44582 16.6667 6.23385 16.7545 6.07757 16.9108C5.92129 17.0671 5.8335 17.2791 5.8335 17.5001C5.8335 17.7211 5.92129 17.9331 6.07757 18.0893C6.23385 18.2456 6.44582 18.3334 6.66683 18.3334H13.3335C13.5545 18.3334 13.7665 18.2456 13.9228 18.0893C14.079 17.9331 14.1668 17.7211 14.1668 17.5001C14.1668 17.2791 14.079 17.0671 13.9228 16.9108C13.7665 16.7545 13.5545 16.6667 13.3335 16.6667H10.8335V5.00008H12.9502C13.0844 4.99333 13.2181 5.02213 13.3377 5.08357C13.4573 5.14501 13.5586 5.23692 13.6313 5.35001C13.8325 5.71745 14.1231 6.02823 14.4762 6.25359L12.5535 11.3738C12.5412 11.4213 12.5333 11.4699 12.53 11.5189C12.5154 11.5671 12.5054 11.6166 12.5002 11.6667C12.5002 11.6745 12.5024 11.6816 12.5025 11.6893C12.5027 11.7003 12.505 11.7104 12.5057 11.7214C12.5187 12.5954 12.875 13.4292 13.4977 14.0427C14.1203 14.6562 14.9594 15.0001 15.8335 15.0001C16.7076 15.0001 17.5467 14.6562 18.1693 14.0427C18.792 13.4292 19.1483 12.5954 19.1613 11.7214C19.162 11.7104 19.1643 11.7003 19.1645 11.6893C19.1646 11.6816 19.1668 11.6745 19.1668 11.6667C19.1616 11.6166 19.1516 11.5671 19.137 11.5189ZM4.16683 7.37969L5.46383 10.8334H2.86983L4.16683 7.37969ZM5.60238 12.5001C5.45531 12.751 5.24582 12.9596 4.99427 13.1057C4.74272 13.2517 4.45767 13.3301 4.16683 13.3334C3.87436 13.3333 3.58706 13.2562 3.33379 13.11C3.08053 12.9637 2.87021 12.7534 2.72395 12.5001H5.60238ZM15.8335 7.37969L17.1305 10.8334H14.5365L15.8335 7.37969ZM15.8335 13.3334C15.541 13.3333 15.2537 13.2562 15.0005 13.11C14.7472 12.9637 14.5369 12.7534 14.3906 12.5001H17.269C17.122 12.751 16.9125 12.9596 16.6609 13.1057C16.4094 13.2517 16.1243 13.3301 15.8335 13.3334Z" fill="white"/>
</svg>
