<svg width="20" height="20" viewBox="0 0 20 20" fill="none" xmlns="http://www.w3.org/2000/svg">
<path d="M11.6665 6.66675H12.4998C12.7209 6.66675 12.9328 6.57895 13.0891 6.42267C13.2454 6.26639 13.3332 6.05443 13.3332 5.83341C13.3332 5.6124 13.2454 5.40044 13.0891 5.24416C12.9328 5.08788 12.7209 5.00008 12.4998 5.00008H11.6665C11.4455 5.00008 11.2335 5.08788 11.0772 5.24416C10.921 5.40044 10.8332 5.6124 10.8332 5.83341C10.8332 6.05443 10.921 6.26639 11.0772 6.42267C11.2335 6.57895 11.4455 6.66675 11.6665 6.66675V6.66675ZM11.6665 10.0001H12.4998C12.7209 10.0001 12.9328 9.91228 13.0891 9.756C13.2454 9.59972 13.3332 9.38776 13.3332 9.16675C13.3332 8.94573 13.2454 8.73377 13.0891 8.57749C12.9328 8.42121 12.7209 8.33342 12.4998 8.33342H11.6665C11.4455 8.33342 11.2335 8.42121 11.0772 8.57749C10.921 8.73377 10.8332 8.94573 10.8332 9.16675C10.8332 9.38776 10.921 9.59972 11.0772 9.756C11.2335 9.91228 11.4455 10.0001 11.6665 10.0001V10.0001ZM7.49984 6.66675H8.33317C8.55418 6.66675 8.76615 6.57895 8.92243 6.42267C9.07871 6.26639 9.1665 6.05443 9.1665 5.83341C9.1665 5.6124 9.07871 5.40044 8.92243 5.24416C8.76615 5.08788 8.55418 5.00008 8.33317 5.00008H7.49984C7.27882 5.00008 7.06686 5.08788 6.91058 5.24416C6.7543 5.40044 6.6665 5.6124 6.6665 5.83341C6.6665 6.05443 6.7543 6.26639 6.91058 6.42267C7.06686 6.57895 7.27882 6.66675 7.49984 6.66675V6.66675ZM7.49984 10.0001H8.33317C8.55418 10.0001 8.76615 9.91228 8.92243 9.756C9.07871 9.59972 9.1665 9.38776 9.1665 9.16675C9.1665 8.94573 9.07871 8.73377 8.92243 8.57749C8.76615 8.42121 8.55418 8.33342 8.33317 8.33342H7.49984C7.27882 8.33342 7.06686 8.42121 6.91058 8.57749C6.7543 8.73377 6.6665 8.94573 6.6665 9.16675C6.6665 9.38776 6.7543 9.59972 6.91058 9.756C7.06686 9.91228 7.27882 10.0001 7.49984 10.0001V10.0001ZM17.4998 16.6667H16.6665V2.50008C16.6665 2.27907 16.5787 2.06711 16.4224 1.91083C16.2661 1.75455 16.0542 1.66675 15.8332 1.66675H4.1665C3.94549 1.66675 3.73353 1.75455 3.57725 1.91083C3.42097 2.06711 3.33317 2.27907 3.33317 2.50008V16.6667H2.49984C2.27882 16.6667 2.06686 16.7545 1.91058 16.9108C1.7543 17.0671 1.6665 17.2791 1.6665 17.5001C1.6665 17.7211 1.7543 17.9331 1.91058 18.0893C2.06686 18.2456 2.27882 18.3334 2.49984 18.3334H17.4998C17.7209 18.3334 17.9328 18.2456 18.0891 18.0893C18.2454 17.9331 18.3332 17.7211 18.3332 17.5001C18.3332 17.2791 18.2454 17.0671 18.0891 16.9108C17.9328 16.7545 17.7209 16.6667 17.4998 16.6667ZM10.8332 16.6667H9.1665V13.3334H10.8332V16.6667ZM14.9998 16.6667H12.4998V12.5001C12.4998 12.2791 12.412 12.0671 12.2558 11.9108C12.0995 11.7545 11.8875 11.6667 11.6665 11.6667H8.33317C8.11216 11.6667 7.9002 11.7545 7.74392 11.9108C7.58764 12.0671 7.49984 12.2791 7.49984 12.5001V16.6667H4.99984V3.33341H14.9998V16.6667Z" fill="white"/>
</svg>
