<svg width="20" height="20" viewBox="0 0 20 20" fill="none" xmlns="http://www.w3.org/2000/svg">
<path d="M2.08399 7.38344L9.58399 11.7168C9.71067 11.7899 9.85438 11.8284 10.0007 11.8284C10.1469 11.8284 10.2906 11.7899 10.4173 11.7168L17.9173 7.38344C18.0433 7.31073 18.148 7.20632 18.2211 7.08059C18.2942 6.95487 18.3331 6.8122 18.334 6.66677C18.3346 6.51993 18.2963 6.37554 18.2232 6.24823C18.15 6.12091 18.0445 6.01519 17.9173 5.94177L10.4173 1.61677C10.2906 1.54363 10.1469 1.50513 10.0007 1.50513C9.85438 1.50513 9.71067 1.54363 9.58399 1.61677L2.08399 5.94177C1.95682 6.01519 1.85131 6.12091 1.77814 6.24823C1.70497 6.37554 1.66674 6.51993 1.66732 6.66677C1.6682 6.8122 1.70712 6.95487 1.78022 7.08059C1.85331 7.20632 1.95804 7.31073 2.08399 7.38344V7.38344ZM10.0007 3.33344L15.834 6.66677L10.0007 10.0001L4.16732 6.66677L10.0007 3.33344ZM17.084 9.30844L10.0007 13.3334L2.91732 9.27511C2.82221 9.22001 2.71714 9.18427 2.60816 9.16995C2.49917 9.15563 2.38844 9.16301 2.28232 9.19167C2.1762 9.22033 2.0768 9.2697 1.98985 9.33694C1.90289 9.40417 1.8301 9.48795 1.77566 9.58344C1.66701 9.77479 1.63846 10.0013 1.69622 10.2137C1.75399 10.426 1.89338 10.6068 2.08399 10.7168L9.58399 15.0501C9.71067 15.1232 9.85438 15.1618 10.0007 15.1618C10.1469 15.1618 10.2906 15.1232 10.4173 15.0501L17.9173 10.7168C18.1079 10.6068 18.2473 10.426 18.3051 10.2137C18.3629 10.0013 18.3343 9.77479 18.2257 9.58344C18.1712 9.48795 18.0984 9.40417 18.0115 9.33694C17.9245 9.2697 17.8251 9.22033 17.719 9.19167C17.6129 9.16301 17.5021 9.15563 17.3932 9.16995C17.2842 9.18427 17.1791 9.22001 17.084 9.27511V9.30844ZM17.084 12.6418L10.0007 16.6668L2.91732 12.6084C2.82221 12.5533 2.71714 12.5176 2.60816 12.5033C2.49917 12.489 2.38844 12.4963 2.28232 12.525C2.1762 12.5537 2.0768 12.603 1.98985 12.6703C1.90289 12.7375 1.8301 12.8213 1.77566 12.9168C1.66701 13.1081 1.63846 13.3347 1.69622 13.547C1.75399 13.7593 1.89338 13.9402 2.08399 14.0501L9.58399 18.3834C9.71067 18.4566 9.85438 18.4951 10.0007 18.4951C10.1469 18.4951 10.2906 18.4566 10.4173 18.3834L17.9173 14.0501C18.1079 13.9402 18.2473 13.7593 18.3051 13.547C18.3629 13.3347 18.3343 13.1081 18.2257 12.9168C18.1712 12.8213 18.0984 12.7375 18.0115 12.6703C17.9245 12.603 17.8251 12.5537 17.719 12.525C17.6129 12.4963 17.5021 12.489 17.3932 12.5033C17.2842 12.5176 17.1791 12.5533 17.084 12.6084V12.6418Z" fill="white"/>
</svg>
