<svg width="20" height="20" viewBox="0 0 20 20" fill="none" xmlns="http://www.w3.org/2000/svg">
<path fill-rule="evenodd" clip-rule="evenodd" d="M2.50097 10.8329H3.3343V12.4996V16.6662C3.3343 17.5854 4.0818 18.3329 5.00097 18.3329H15.001C15.9201 18.3329 16.6676 17.5854 16.6676 16.6662V12.4996V10.8329H17.501C17.8376 10.8329 18.1426 10.6296 18.271 10.3187C18.4001 10.0071 18.3285 9.64872 18.0901 9.41039L10.5901 1.91039C10.2643 1.58456 9.73764 1.58456 9.4118 1.91039L1.9118 9.41039C1.67347 9.64872 1.6018 10.0071 1.73097 10.3187C1.86014 10.6296 2.1643 10.8329 2.50097 10.8329ZM10.0005 3.67773L15.0005 8.67773V12.4994L15.0013 16.6661H5.00049V12.4994V9.9994V8.67857L10.0005 3.67773Z" fill="white"/>
<path fill-rule="evenodd" clip-rule="evenodd" d="M10.0008 14.1667C11.8391 14.1667 13.3341 12.6717 13.3341 10.8333C13.3341 8.995 11.8391 7.5 10.0008 7.5C8.16248 7.5 6.66748 8.995 6.66748 10.8333C6.66748 12.6717 8.16248 14.1667 10.0008 14.1667ZM10.0011 9.16699C10.9203 9.16699 11.6678 9.91449 11.6678 10.8337C11.6678 11.7528 10.9203 12.5003 10.0011 12.5003C9.08197 12.5003 8.33447 11.7528 8.33447 10.8337C8.33447 9.91449 9.08197 9.16699 10.0011 9.16699Z" fill="white"/>
</svg>
