<svg width="20" height="20" viewBox="0 0 20 20" fill="none" xmlns="http://www.w3.org/2000/svg">
<path d="M12.342 10.2334C12.8695 9.66695 13.1666 8.92406 13.1753 8.15008C13.1753 7.31465 12.8435 6.51343 12.2527 5.9227C11.662 5.33196 10.8608 5.00008 10.0253 5.00008C9.18989 5.00008 8.38868 5.33196 7.79794 5.9227C7.2072 6.51343 6.87533 7.31465 6.87533 8.15008C6.88402 8.92406 7.18118 9.66695 7.70866 10.2334C6.9742 10.5991 6.34218 11.1417 5.86942 11.8123C5.39667 12.4829 5.09801 13.2604 5.00033 14.0751C4.97601 14.2961 5.0405 14.5177 5.17959 14.6912C5.31867 14.8647 5.52098 14.9758 5.74199 15.0001C5.96301 15.0244 6.18463 14.9599 6.3581 14.8208C6.53157 14.6817 6.64268 14.4794 6.66699 14.2584C6.76644 13.451 7.1577 12.7079 7.76706 12.169C8.37643 11.63 9.16184 11.3326 9.97533 11.3326C10.7888 11.3326 11.5742 11.63 12.1836 12.169C12.793 12.7079 13.1842 13.451 13.2837 14.2584C13.3068 14.4721 13.4117 14.6686 13.5763 14.8068C13.7409 14.945 13.9525 15.0142 14.167 15.0001H14.2587C14.4771 14.9749 14.6768 14.8645 14.8141 14.6928C14.9515 14.5211 15.0154 14.3021 14.992 14.0834C14.9015 13.2731 14.6123 12.4976 14.15 11.826C13.6877 11.1543 13.0666 10.6072 12.342 10.2334V10.2334ZM10.0003 9.63342C9.70695 9.63342 9.42016 9.54642 9.17623 9.38343C8.9323 9.22044 8.74217 8.98877 8.6299 8.71773C8.51763 8.44669 8.48826 8.14844 8.54549 7.8607C8.60273 7.57296 8.744 7.30865 8.95145 7.10121C9.1589 6.89376 9.4232 6.75249 9.71094 6.69525C9.99868 6.63802 10.2969 6.66739 10.568 6.77966C10.839 6.89193 11.0707 7.08205 11.2337 7.32599C11.3967 7.56992 11.4837 7.85671 11.4837 8.15008C11.4837 8.54349 11.3274 8.92078 11.0492 9.19896C10.771 9.47714 10.3937 9.63342 10.0003 9.63342V9.63342ZM15.8337 1.66675H4.16699C3.50395 1.66675 2.86807 1.93014 2.39923 2.39898C1.93038 2.86782 1.66699 3.50371 1.66699 4.16675V15.8334C1.66699 16.4965 1.93038 17.1323 2.39923 17.6012C2.86807 18.07 3.50395 18.3334 4.16699 18.3334H15.8337C16.4967 18.3334 17.1326 18.07 17.6014 17.6012C18.0703 17.1323 18.3337 16.4965 18.3337 15.8334V4.16675C18.3337 3.50371 18.0703 2.86782 17.6014 2.39898C17.1326 1.93014 16.4967 1.66675 15.8337 1.66675ZM16.667 15.8334C16.667 16.0544 16.5792 16.2664 16.4229 16.4227C16.2666 16.579 16.0547 16.6667 15.8337 16.6667H4.16699C3.94598 16.6667 3.73402 16.579 3.57774 16.4227C3.42146 16.2664 3.33366 16.0544 3.33366 15.8334V4.16675C3.33366 3.94573 3.42146 3.73377 3.57774 3.57749C3.73402 3.42121 3.94598 3.33341 4.16699 3.33341H15.8337C16.0547 3.33341 16.2666 3.42121 16.4229 3.57749C16.5792 3.73377 16.667 3.94573 16.667 4.16675V15.8334Z" fill="white"/>
</svg>
