<svg width="20" height="20" viewBox="0 0 20 20" fill="none" xmlns="http://www.w3.org/2000/svg">
<path d="M16.6668 10.0001C16.6668 9.77907 16.579 9.56711 16.4228 9.41083C16.2665 9.25455 16.0545 9.16675 15.8335 9.16675H9.5085L11.4252 7.25842C11.5029 7.18072 11.5645 7.08847 11.6065 6.98696C11.6486 6.88544 11.6702 6.77663 11.6702 6.66675C11.6702 6.55687 11.6486 6.44806 11.6065 6.34654C11.5645 6.24502 11.5029 6.15278 11.4252 6.07508C11.3475 5.99738 11.2552 5.93575 11.1537 5.8937C11.0522 5.85165 10.9434 5.83001 10.8335 5.83001C10.7236 5.83001 10.6148 5.85165 10.5133 5.8937C10.4118 5.93575 10.3195 5.99738 10.2418 6.07508L6.9085 9.40842C6.83263 9.48767 6.77316 9.58112 6.7335 9.68342C6.65015 9.8863 6.65015 10.1139 6.7335 10.3167C6.77316 10.419 6.83263 10.5125 6.9085 10.5917L10.2418 13.9251C10.3193 14.0032 10.4115 14.0652 10.513 14.1075C10.6146 14.1498 10.7235 14.1716 10.8335 14.1716C10.9435 14.1716 11.0524 14.1498 11.154 14.1075C11.2555 14.0652 11.3477 14.0032 11.4252 13.9251C11.5033 13.8476 11.5653 13.7554 11.6076 13.6539C11.6499 13.5523 11.6717 13.4434 11.6717 13.3334C11.6717 13.2234 11.6499 13.1145 11.6076 13.0129C11.5653 12.9114 11.5033 12.8192 11.4252 12.7417L9.5085 10.8334H15.8335C16.0545 10.8334 16.2665 10.7456 16.4228 10.5893C16.579 10.4331 16.6668 10.2211 16.6668 10.0001ZM14.1668 1.66675H5.8335C5.17045 1.66675 4.53457 1.93014 4.06573 2.39898C3.59689 2.86782 3.3335 3.50371 3.3335 4.16675V15.8334C3.3335 16.4965 3.59689 17.1323 4.06573 17.6012C4.53457 18.07 5.17045 18.3334 5.8335 18.3334H14.1668C14.8299 18.3334 15.4658 18.07 15.9346 17.6012C16.4034 17.1323 16.6668 16.4965 16.6668 15.8334V13.3334C16.6668 13.1124 16.579 12.9004 16.4228 12.7442C16.2665 12.5879 16.0545 12.5001 15.8335 12.5001C15.6125 12.5001 15.4005 12.5879 15.2442 12.7442C15.088 12.9004 15.0002 13.1124 15.0002 13.3334V15.8334C15.0002 16.0544 14.9124 16.2664 14.7561 16.4227C14.5998 16.579 14.3878 16.6667 14.1668 16.6667H5.8335C5.61248 16.6667 5.40052 16.579 5.24424 16.4227C5.08796 16.2664 5.00016 16.0544 5.00016 15.8334V4.16675C5.00016 3.94573 5.08796 3.73377 5.24424 3.57749C5.40052 3.42121 5.61248 3.33341 5.8335 3.33341H14.1668C14.3878 3.33341 14.5998 3.42121 14.7561 3.57749C14.9124 3.73377 15.0002 3.94573 15.0002 4.16675V6.66675C15.0002 6.88776 15.088 7.09972 15.2442 7.256C15.4005 7.41228 15.6125 7.50008 15.8335 7.50008C16.0545 7.50008 16.2665 7.41228 16.4228 7.256C16.579 7.09972 16.6668 6.88776 16.6668 6.66675V4.16675C16.6668 3.50371 16.4034 2.86782 15.9346 2.39898C15.4658 1.93014 14.8299 1.66675 14.1668 1.66675Z" fill="white"/>
</svg>
