<svg width="20" height="20" viewBox="0 0 20 20" fill="none" xmlns="http://www.w3.org/2000/svg">
<path d="M10.0001 1.66675C8.38385 1.66982 6.80336 2.14284 5.45115 3.0282C4.09893 3.91355 3.03337 5.17303 2.38424 6.65322C1.73511 8.13341 1.53044 9.77043 1.79514 11.3649C2.05985 12.9593 2.78252 14.4424 3.87512 15.6334V15.6334C4.65547 16.4793 5.60257 17.1544 6.65674 17.6161C7.7109 18.0778 8.84927 18.3162 10.0001 18.3162C11.151 18.3162 12.2893 18.0778 13.3435 17.6161C14.3977 17.1544 15.3448 16.4793 16.1251 15.6334V15.6334C17.2177 14.4424 17.9404 12.9593 18.2051 11.3649C18.4698 9.77043 18.2651 8.13341 17.616 6.65322C16.9669 5.17303 15.9013 3.91355 14.5491 3.0282C13.1969 2.14284 11.6164 1.66982 10.0001 1.66675V1.66675ZM10.0001 16.6667C8.27384 16.6641 6.61588 15.992 5.37512 14.7917C5.75183 13.8747 6.39265 13.0903 7.21617 12.5383C8.03968 11.9863 9.00871 11.6916 10.0001 11.6916C10.9915 11.6916 11.9606 11.9863 12.7841 12.5383C13.6076 13.0903 14.2484 13.8747 14.6251 14.7917C13.3844 15.992 11.7264 16.6641 10.0001 16.6667ZM8.33346 8.33342C8.33346 8.00378 8.4312 7.68155 8.61434 7.40746C8.79748 7.13338 9.05777 6.91976 9.36232 6.79362C9.66686 6.66747 10.002 6.63446 10.3253 6.69877C10.6486 6.76308 10.9455 6.92182 11.1786 7.1549C11.4117 7.38799 11.5705 7.68496 11.6348 8.00826C11.6991 8.33157 11.6661 8.66668 11.5399 8.97122C11.4138 9.27576 11.2002 9.53606 10.9261 9.7192C10.652 9.90233 10.3298 10.0001 10.0001 10.0001C9.55809 10.0001 9.13417 9.82449 8.82161 9.51193C8.50905 9.19937 8.33346 8.77544 8.33346 8.33342ZM15.7585 13.3334C15.0139 12.0599 13.868 11.0693 12.5001 10.5167C12.9244 10.0356 13.2009 9.4423 13.2963 8.80795C13.3918 8.1736 13.3022 7.52518 13.0382 6.9405C12.7743 6.35582 12.3473 5.85971 11.8084 5.51172C11.2695 5.16373 10.6416 4.97862 10.0001 4.97862C9.35863 4.97862 8.73076 5.16373 8.19187 5.51172C7.65297 5.85971 7.22593 6.35582 6.962 6.9405C6.69806 7.52518 6.60844 8.1736 6.7039 8.80795C6.79935 9.4423 7.07582 10.0356 7.50012 10.5167C6.13229 11.0693 4.98635 12.0599 4.24179 13.3334C3.64841 12.3227 3.33489 11.1721 3.33346 10.0001C3.33346 8.23197 4.03583 6.53628 5.28608 5.28604C6.53632 4.03579 8.23201 3.33341 10.0001 3.33341C11.7682 3.33341 13.4639 4.03579 14.7142 5.28604C15.9644 6.53628 16.6668 8.23197 16.6668 10.0001C16.6654 11.1721 16.3518 12.3227 15.7585 13.3334V13.3334Z" fill="white"/>
</svg>
