<svg width="20" height="20" viewBox="0 0 20 20" fill="none" xmlns="http://www.w3.org/2000/svg">
<path d="M10.2502 10.1834C10.6948 9.79853 11.0515 9.32249 11.2959 8.7876C11.5403 8.25272 11.6668 7.67151 11.6668 7.08342C11.6668 5.97835 11.2278 4.91854 10.4464 4.13714C9.66504 3.35574 8.60523 2.91675 7.50016 2.91675C6.39509 2.91675 5.33529 3.35574 4.55388 4.13714C3.77248 4.91854 3.3335 5.97835 3.3335 7.08342C3.33349 7.67151 3.46 8.25272 3.70443 8.7876C3.94887 9.32249 4.30551 9.79853 4.75016 10.1834C3.58361 10.7117 2.59388 11.5647 1.89931 12.6405C1.20474 13.7164 0.834723 14.9695 0.833496 16.2501C0.833496 16.4711 0.921293 16.6831 1.07757 16.8393C1.23385 16.9956 1.44582 17.0834 1.66683 17.0834C1.88784 17.0834 2.0998 16.9956 2.25609 16.8393C2.41237 16.6831 2.50016 16.4711 2.50016 16.2501C2.50016 14.924 3.02695 13.6522 3.96463 12.7145C4.90231 11.7769 6.17408 11.2501 7.50016 11.2501C8.82625 11.2501 10.098 11.7769 11.0357 12.7145C11.9734 13.6522 12.5002 14.924 12.5002 16.2501C12.5002 16.4711 12.588 16.6831 12.7442 16.8393C12.9005 16.9956 13.1125 17.0834 13.3335 17.0834C13.5545 17.0834 13.7665 16.9956 13.9228 16.8393C14.079 16.6831 14.1668 16.4711 14.1668 16.2501C14.1656 14.9695 13.7956 13.7164 13.101 12.6405C12.4064 11.5647 11.4167 10.7117 10.2502 10.1834V10.1834ZM7.50016 9.58342C7.00571 9.58342 6.52236 9.43679 6.11124 9.16209C5.70011 8.88739 5.37968 8.49694 5.19046 8.04012C5.00124 7.58331 4.95174 7.08064 5.0482 6.59569C5.14466 6.11074 5.38276 5.66528 5.7324 5.31565C6.08203 4.96602 6.52748 4.72792 7.01244 4.63145C7.49739 4.53499 8.00006 4.5845 8.45687 4.77372C8.91369 4.96294 9.30413 5.28337 9.57884 5.69449C9.85354 6.10561 10.0002 6.58896 10.0002 7.08342C10.0002 7.74646 9.73677 8.38234 9.26793 8.85118C8.79909 9.32002 8.1632 9.58342 7.50016 9.58342ZM15.6168 9.85008C16.1501 9.24952 16.4985 8.50763 16.62 7.7137C16.7415 6.91977 16.6309 6.10764 16.3016 5.37508C15.9723 4.64252 15.4383 4.02074 14.7639 3.5846C14.0895 3.14846 13.3033 2.91653 12.5002 2.91675C12.2791 2.91675 12.0672 3.00455 11.9109 3.16083C11.7546 3.31711 11.6668 3.52907 11.6668 3.75008C11.6668 3.9711 11.7546 4.18306 11.9109 4.33934C12.0672 4.49562 12.2791 4.58342 12.5002 4.58342C13.1632 4.58342 13.7991 4.84681 14.2679 5.31565C14.7368 5.78449 15.0002 6.42037 15.0002 7.08342C14.999 7.52112 14.8829 7.95083 14.6635 8.3296C14.4442 8.70836 14.1292 9.0229 13.7502 9.24175C13.6266 9.31302 13.5234 9.4148 13.4505 9.53737C13.3775 9.65993 13.3372 9.79917 13.3335 9.94175C13.33 10.0832 13.3626 10.2232 13.4282 10.3486C13.4938 10.474 13.5903 10.5806 13.7085 10.6584L14.0335 10.8751L14.1418 10.9334C15.1463 11.4098 15.9938 12.1634 16.5843 13.1053C17.1749 14.0473 17.484 15.1384 17.4752 16.2501C17.4752 16.4711 17.563 16.6831 17.7192 16.8393C17.8755 16.9956 18.0875 17.0834 18.3085 17.0834C18.5295 17.0834 18.7415 16.9956 18.8978 16.8393C19.054 16.6831 19.1418 16.4711 19.1418 16.2501C19.1486 14.9713 18.8283 13.712 18.2114 12.5918C17.5944 11.4716 16.7013 10.5278 15.6168 9.85008V9.85008Z" fill="white"/>
</svg>
