<svg width="18" height="18" viewBox="0 0 18 18" fill="none" xmlns="http://www.w3.org/2000/svg">
<path d="M8.99915 0.666992C7.38288 0.670063 5.80238 1.14308 4.45017 2.02844C3.09796 2.9138 2.03239 4.17328 1.38326 5.65347C0.734134 7.13366 0.529459 8.77067 0.794167 10.3651C1.05888 11.9596 1.78154 13.4426 2.87415 14.6337V14.6337C3.6545 15.4795 4.6016 16.1546 5.65576 16.6163C6.70992 17.0781 7.8483 17.3164 8.99915 17.3164C10.15 17.3164 11.2884 17.0781 12.3425 16.6163C13.3967 16.1546 14.3438 15.4795 15.1241 14.6337V14.6337C16.2167 13.4426 16.9394 11.9596 17.2041 10.3651C17.4688 8.77067 17.2642 7.13366 16.615 5.65347C15.9659 4.17328 14.9003 2.9138 13.5481 2.02844C12.1959 1.14308 10.6154 0.670063 8.99915 0.666992V0.666992ZM8.99915 15.667C7.27287 15.6644 5.61491 14.9922 4.37415 13.792C4.75085 12.8749 5.39167 12.0906 6.21519 11.5386C7.03871 10.9866 8.00774 10.6918 8.99915 10.6918C9.99056 10.6918 10.9596 10.9866 11.7831 11.5386C12.6066 12.0906 13.2474 12.8749 13.6241 13.792C12.3834 14.9922 10.7254 15.6644 8.99915 15.667ZM7.33248 7.33366C7.33248 7.00402 7.43023 6.68179 7.61336 6.40771C7.7965 6.13363 8.0568 5.92001 8.36134 5.79386C8.66588 5.66771 9.00099 5.63471 9.3243 5.69902C9.6476 5.76333 9.94457 5.92206 10.1777 6.15515C10.4107 6.38824 10.5695 6.68521 10.6338 7.00851C10.6981 7.33181 10.6651 7.66692 10.5389 7.97146C10.4128 8.27601 10.1992 8.53631 9.9251 8.71944C9.65101 8.90258 9.32878 9.00033 8.99915 9.00033C8.55712 9.00033 8.1332 8.82473 7.82063 8.51217C7.50807 8.19961 7.33248 7.77569 7.33248 7.33366ZM14.7575 12.3337C14.0129 11.0601 12.867 10.0695 11.4991 9.51699C11.9235 9.03587 12.1999 8.44254 12.2954 7.80819C12.3908 7.17384 12.3012 6.52542 12.0373 5.94074C11.7733 5.35606 11.3463 4.85996 10.8074 4.51196C10.2685 4.16397 9.64064 3.97887 8.99915 3.97887C8.35765 3.97887 7.72979 4.16397 7.19089 4.51196C6.65199 4.85996 6.22495 5.35606 5.96102 5.94074C5.69709 6.52542 5.60747 7.17384 5.70292 7.80819C5.79837 8.44254 6.07484 9.03587 6.49915 9.51699C5.13131 10.0695 3.98537 11.0601 3.24081 12.3337C2.64743 11.3229 2.33391 10.1724 2.33248 9.00033C2.33248 7.23222 3.03486 5.53652 4.2851 4.28628C5.53534 3.03604 7.23104 2.33366 8.99915 2.33366C10.7673 2.33366 12.4629 3.03604 13.7132 4.28628C14.9634 5.53652 15.6658 7.23222 15.6658 9.00033C15.6644 10.1724 15.3509 11.3229 14.7575 12.3337V12.3337Z" fill="white"/>
</svg>
