<svg width="18" height="18" viewBox="0 0 18 18" fill="none" xmlns="http://www.w3.org/2000/svg">
<path d="M7.50768 11.292C7.58515 11.3701 7.67732 11.4321 7.77887 11.4744C7.88042 11.5167 7.98934 11.5385 8.09935 11.5385C8.20936 11.5385 8.31828 11.5167 8.41983 11.4744C8.52138 11.4321 8.61355 11.3701 8.69102 11.292L12.091 7.89199C12.2479 7.73507 12.3361 7.52224 12.3361 7.30033C12.3361 7.07841 12.2479 6.86558 12.091 6.70866C11.9341 6.55174 11.7213 6.46358 11.4993 6.46358C11.2774 6.46358 11.0646 6.55174 10.9077 6.70866L8.09935 9.52533L7.09102 8.50866C6.9341 8.35174 6.72127 8.26358 6.49935 8.26358C6.27743 8.26358 6.0646 8.35174 5.90768 8.50866C5.75076 8.66558 5.66261 8.87841 5.66261 9.10033C5.66261 9.32224 5.75076 9.53507 5.90768 9.69199L7.50768 11.292ZM16.4993 0.666992H1.49935C1.27834 0.666992 1.06637 0.75479 0.910093 0.91107C0.753813 1.06735 0.666016 1.27931 0.666016 1.50033V16.5003C0.666016 16.7213 0.753813 16.9333 0.910093 17.0896C1.06637 17.2459 1.27834 17.3337 1.49935 17.3337H16.4993C16.7204 17.3337 16.9323 17.2459 17.0886 17.0896C17.2449 16.9333 17.3327 16.7213 17.3327 16.5003V1.50033C17.3327 1.27931 17.2449 1.06735 17.0886 0.91107C16.9323 0.75479 16.7204 0.666992 16.4993 0.666992V0.666992ZM15.666 15.667H2.33268V2.33366H15.666V15.667Z" fill="white"/>
</svg>
