<svg width="20" height="16" viewBox="0 0 20 16" fill="none" xmlns="http://www.w3.org/2000/svg">
<path d="M10.2507 8.18366C10.6953 7.79877 11.0519 7.32273 11.2964 6.78785C11.5408 6.25296 11.6673 5.67175 11.6673 5.08366C11.6673 3.97859 11.2283 2.91878 10.4469 2.13738C9.66553 1.35598 8.60572 0.916992 7.50065 0.916992C6.39558 0.916992 5.33577 1.35598 4.55437 2.13738C3.77297 2.91878 3.33398 3.97859 3.33398 5.08366C3.33398 5.67175 3.46049 6.25296 3.70492 6.78785C3.94936 7.32273 4.306 7.79877 4.75065 8.18366C3.5841 8.7119 2.59437 9.56493 1.8998 10.6408C1.20523 11.7166 0.835211 12.9698 0.833984 14.2503C0.833984 14.4713 0.921782 14.6833 1.07806 14.8396C1.23434 14.9959 1.4463 15.0837 1.66732 15.0837C1.88833 15.0837 2.10029 14.9959 2.25657 14.8396C2.41285 14.6833 2.50065 14.4713 2.50065 14.2503C2.50065 12.9242 3.02744 11.6525 3.96512 10.7148C4.9028 9.77711 6.17457 9.25033 7.50065 9.25033C8.82673 9.25033 10.0985 9.77711 11.0362 10.7148C11.9739 11.6525 12.5007 12.9242 12.5007 14.2503C12.5007 14.4713 12.5884 14.6833 12.7447 14.8396C12.901 14.9959 13.113 15.0837 13.334 15.0837C13.555 15.0837 13.767 14.9959 13.9232 14.8396C14.0795 14.6833 14.1673 14.4713 14.1673 14.2503C14.1661 12.9698 13.7961 11.7166 13.1015 10.6408C12.4069 9.56493 11.4172 8.7119 10.2507 8.18366V8.18366ZM7.50065 7.58366C7.0062 7.58366 6.52285 7.43704 6.11173 7.16233C5.7006 6.88763 5.38017 6.49718 5.19095 6.04037C5.00173 5.58355 4.95222 5.08089 5.04869 4.59593C5.14515 4.11098 5.38325 3.66552 5.73288 3.31589C6.08252 2.96626 6.52797 2.72816 7.01293 2.6317C7.49788 2.53523 8.00054 2.58474 8.45736 2.77396C8.91417 2.96318 9.30462 3.28361 9.57932 3.69473C9.85403 4.10586 10.0007 4.58921 10.0007 5.08366C10.0007 5.7467 9.73726 6.38259 9.26842 6.85143C8.79958 7.32027 8.16369 7.58366 7.50065 7.58366ZM15.6173 7.85033C16.1506 7.24977 16.499 6.50787 16.6205 5.71394C16.742 4.92001 16.6314 4.10789 16.3021 3.37533C15.9728 2.64276 15.4388 2.02099 14.7644 1.58484C14.0899 1.1487 13.3038 0.916778 12.5007 0.916992C12.2796 0.916992 12.0677 1.00479 11.9114 1.16107C11.7551 1.31735 11.6673 1.52931 11.6673 1.75033C11.6673 1.97134 11.7551 2.1833 11.9114 2.33958C12.0677 2.49586 12.2796 2.58366 12.5007 2.58366C13.1637 2.58366 13.7996 2.84705 14.2684 3.31589C14.7373 3.78473 15.0007 4.42062 15.0007 5.08366C14.9995 5.52136 14.8834 5.95108 14.664 6.32984C14.4447 6.70861 14.1297 7.02314 13.7507 7.24199C13.6271 7.31326 13.5239 7.41505 13.451 7.53761C13.378 7.66017 13.3377 7.79941 13.334 7.94199C13.3305 8.08346 13.3631 8.22349 13.4287 8.34887C13.4943 8.47426 13.5908 8.58087 13.709 8.65866L14.034 8.87533L14.1423 8.93366C15.1468 9.41009 15.9942 10.1637 16.5848 11.1056C17.1754 12.0475 17.4844 13.1386 17.4757 14.2503C17.4757 14.4713 17.5634 14.6833 17.7197 14.8396C17.876 14.9959 18.088 15.0837 18.309 15.0837C18.53 15.0837 18.742 14.9959 18.8982 14.8396C19.0545 14.6833 19.1423 14.4713 19.1423 14.2503C19.1491 12.9715 18.8288 11.7122 18.2119 10.592C17.5949 9.47188 16.7018 8.52809 15.6173 7.85033V7.85033Z" fill="white"/>
</svg>
