<svg width="14" height="18" viewBox="0 0 14 18" fill="none" xmlns="http://www.w3.org/2000/svg">
<path d="M13.6673 9.00033C13.6673 8.77931 13.5795 8.56735 13.4232 8.41107C13.267 8.25479 13.055 8.16699 12.834 8.16699H6.50898L8.42565 6.25866C8.50335 6.18096 8.56498 6.08872 8.60703 5.9872C8.64908 5.88568 8.67073 5.77688 8.67073 5.66699C8.67073 5.55711 8.64908 5.4483 8.60703 5.34678C8.56498 5.24527 8.50335 5.15302 8.42565 5.07533C8.34795 4.99763 8.25571 4.93599 8.15419 4.89394C8.05267 4.85189 7.94387 4.83025 7.83398 4.83025C7.7241 4.83025 7.61529 4.85189 7.51378 4.89394C7.41226 4.93599 7.32002 4.99763 7.24232 5.07533L3.90898 8.40866C3.83312 8.48791 3.77365 8.58137 3.73398 8.68366C3.65064 8.88654 3.65064 9.11411 3.73398 9.31699C3.77365 9.41929 3.83312 9.51274 3.90898 9.59199L7.24232 12.9253C7.31979 13.0034 7.41195 13.0654 7.5135 13.1077C7.61505 13.15 7.72397 13.1718 7.83398 13.1718C7.94399 13.1718 8.05292 13.15 8.15446 13.1077C8.25601 13.0654 8.34818 13.0034 8.42565 12.9253C8.50376 12.8479 8.56575 12.7557 8.60806 12.6541C8.65037 12.5526 8.67215 12.4437 8.67215 12.3337C8.67215 12.2236 8.65037 12.1147 8.60806 12.0132C8.56575 11.9116 8.50376 11.8195 8.42565 11.742L6.50898 9.83366H12.834C13.055 9.83366 13.267 9.74586 13.4232 9.58958C13.5795 9.4333 13.6673 9.22134 13.6673 9.00033ZM11.1673 0.666992H2.83398C2.17094 0.666992 1.53506 0.930384 1.06622 1.39923C0.597377 1.86807 0.333984 2.50395 0.333984 3.16699V14.8337C0.333984 15.4967 0.597377 16.1326 1.06622 16.6014C1.53506 17.0703 2.17094 17.3337 2.83398 17.3337H11.1673C11.8304 17.3337 12.4662 17.0703 12.9351 16.6014C13.4039 16.1326 13.6673 15.4967 13.6673 14.8337V12.3337C13.6673 12.1126 13.5795 11.9007 13.4232 11.7444C13.267 11.5881 13.055 11.5003 12.834 11.5003C12.613 11.5003 12.401 11.5881 12.2447 11.7444C12.0884 11.9007 12.0007 12.1126 12.0007 12.3337V14.8337C12.0007 15.0547 11.9129 15.2666 11.7566 15.4229C11.6003 15.5792 11.3883 15.667 11.1673 15.667H2.83398C2.61297 15.667 2.40101 15.5792 2.24473 15.4229C2.08845 15.2666 2.00065 15.0547 2.00065 14.8337V3.16699C2.00065 2.94598 2.08845 2.73402 2.24473 2.57774C2.40101 2.42146 2.61297 2.33366 2.83398 2.33366H11.1673C11.3883 2.33366 11.6003 2.42146 11.7566 2.57774C11.9129 2.73402 12.0007 2.94598 12.0007 3.16699V5.66699C12.0007 5.88801 12.0884 6.09997 12.2447 6.25625C12.401 6.41253 12.613 6.50033 12.834 6.50033C13.055 6.50033 13.267 6.41253 13.4232 6.25625C13.5795 6.09997 13.6673 5.88801 13.6673 5.66699V3.16699C13.6673 2.50395 13.4039 1.86807 12.9351 1.39923C12.4662 0.930384 11.8304 0.666992 11.1673 0.666992Z" fill="white"/>
</svg>
