<svg width="20" height="18" viewBox="0 0 20 18" fill="none" xmlns="http://www.w3.org/2000/svg">
<path d="M19.1375 10.5192C19.1342 10.4702 19.1263 10.4216 19.114 10.374L17.1934 5.25978C17.543 5.0337 17.8304 4.72381 18.0296 4.3583C18.2288 3.99278 18.3334 3.58326 18.334 3.16699C18.334 2.94598 18.2462 2.73402 18.0899 2.57774C17.9336 2.42146 17.7217 2.33366 17.5006 2.33366C17.2796 2.33366 17.0677 2.42146 16.9114 2.57774C16.7551 2.73402 16.6673 2.94598 16.6673 3.16699C16.6672 3.3527 16.6052 3.53306 16.4909 3.67948C16.3767 3.8259 16.2169 3.92998 16.0368 3.97522C15.8566 4.02046 15.6666 4.00426 15.4967 3.9292C15.3269 3.85414 15.1869 3.72451 15.0991 3.56088C14.8853 3.1813 14.5726 2.86676 14.1943 2.65067C13.816 2.43459 13.3862 2.32504 12.9506 2.33366H10.834V1.50033C10.834 1.27931 10.7462 1.06735 10.5899 0.91107C10.4336 0.75479 10.2217 0.666992 10.0007 0.666992C9.77964 0.666992 9.56768 0.75479 9.41139 0.91107C9.25511 1.06735 9.16732 1.27931 9.16732 1.50033V2.33366H7.05065C6.61507 2.32504 6.1853 2.43459 5.807 2.65067C5.4287 2.86676 5.11602 3.1813 4.90218 3.56088C4.81437 3.72451 4.67444 3.85414 4.50458 3.9292C4.33472 4.00426 4.14466 4.02046 3.96455 3.97522C3.78444 3.92998 3.62459 3.8259 3.51036 3.67948C3.39612 3.53306 3.33405 3.3527 3.33398 3.16699C3.33398 2.94598 3.24619 2.73402 3.08991 2.57774C2.93363 2.42146 2.72166 2.33366 2.50065 2.33366C2.27964 2.33366 2.06768 2.42146 1.9114 2.57774C1.75511 2.73402 1.66732 2.94598 1.66732 3.16699C1.66786 3.58326 1.7725 3.99278 1.97169 4.3583C2.17089 4.72381 2.45833 5.0337 2.80786 5.25978L0.887318 10.374C0.874989 10.4216 0.867125 10.4702 0.863826 10.5192C0.849191 10.5674 0.839199 10.6169 0.833984 10.667C0.833984 10.6747 0.836226 10.6818 0.836276 10.6896C0.836526 10.7006 0.838776 10.7107 0.839526 10.7216C0.852501 11.5956 1.20881 12.4295 1.83149 13.043C2.45416 13.6565 3.29319 14.0004 4.16732 14.0004C5.04144 14.0004 5.88048 13.6565 6.50315 13.043C7.12582 12.4295 7.48213 11.5956 7.49511 10.7216C7.49582 10.7107 7.49811 10.7006 7.49836 10.6896C7.49841 10.6818 7.50065 10.6747 7.50065 10.667C7.49545 10.6169 7.48547 10.5674 7.47084 10.5192C7.46754 10.4702 7.45968 10.4216 7.44735 10.374L5.52453 5.25383C5.87767 5.02847 6.16827 4.7177 6.36947 4.35026C6.44218 4.23716 6.54346 4.14525 6.66306 4.0838C6.78266 4.02236 6.91636 3.99357 7.05065 4.00033H9.16732V15.667H6.66732C6.4463 15.667 6.23434 15.7548 6.07806 15.9111C5.92178 16.0674 5.83398 16.2793 5.83398 16.5003C5.83398 16.7213 5.92178 16.9333 6.07806 17.0896C6.23434 17.2459 6.4463 17.3337 6.66732 17.3337H13.334C13.555 17.3337 13.767 17.2459 13.9232 17.0896C14.0795 16.9333 14.1673 16.7213 14.1673 16.5003C14.1673 16.2793 14.0795 16.0674 13.9232 15.9111C13.767 15.7548 13.555 15.667 13.334 15.667H10.834V4.00033H12.9506C13.0849 3.99357 13.2186 4.02237 13.3382 4.08381C13.4578 4.14525 13.5591 4.23716 13.6318 4.35026C13.833 4.7177 14.1236 5.02847 14.4767 5.25383L12.554 10.374C12.5417 10.4216 12.5338 10.4702 12.5305 10.5192C12.5159 10.5674 12.5059 10.6169 12.5006 10.667C12.5006 10.6747 12.5029 10.6818 12.5029 10.6896C12.5032 10.7006 12.5054 10.7107 12.5062 10.7216C12.5192 11.5956 12.8755 12.4295 13.4982 13.043C14.1208 13.6565 14.9599 14.0004 15.834 14.0004C16.7081 14.0004 17.5471 13.6565 18.1698 13.043C18.7925 12.4295 19.1488 11.5956 19.1618 10.7216C19.1625 10.7107 19.1648 10.7006 19.165 10.6896C19.1651 10.6818 19.1673 10.6747 19.1673 10.667C19.1621 10.6169 19.1521 10.5674 19.1375 10.5192ZM4.16732 6.37993L5.46432 9.83366H2.87032L4.16732 6.37993ZM5.60287 11.5003C5.4558 11.7513 5.24631 11.9599 4.99476 12.1059C4.74321 12.2519 4.45816 12.3304 4.16732 12.3337C3.87485 12.3336 3.58755 12.2565 3.33428 12.1102C3.08102 11.9639 2.8707 11.7536 2.72444 11.5003H5.60287ZM15.834 6.37993L17.131 9.83366H14.537L15.834 6.37993ZM15.834 12.3337C15.5415 12.3336 15.2542 12.2565 15.0009 12.1102C14.7477 11.9639 14.5374 11.7536 14.3911 11.5003H17.2695C17.1225 11.7513 16.913 11.9599 16.6614 12.1059C16.4099 12.2519 16.1248 12.3304 15.834 12.3337Z" fill="white"/>
</svg>
