<svg width="18" height="18" viewBox="0 0 18 18" fill="none" xmlns="http://www.w3.org/2000/svg">
<path d="M10.666 5.66699H11.4993C11.7204 5.66699 11.9323 5.57919 12.0886 5.42291C12.2449 5.26663 12.3327 5.05467 12.3327 4.83366C12.3327 4.61265 12.2449 4.40068 12.0886 4.2444C11.9323 4.08812 11.7204 4.00033 11.4993 4.00033H10.666C10.445 4.00033 10.233 4.08812 10.0768 4.2444C9.92048 4.40068 9.83268 4.61265 9.83268 4.83366C9.83268 5.05467 9.92048 5.26663 10.0768 5.42291C10.233 5.57919 10.445 5.66699 10.666 5.66699V5.66699ZM10.666 9.00033H11.4993C11.7204 9.00033 11.9323 8.91253 12.0886 8.75625C12.2449 8.59997 12.3327 8.38801 12.3327 8.16699C12.3327 7.94598 12.2449 7.73402 12.0886 7.57774C11.9323 7.42146 11.7204 7.33366 11.4993 7.33366H10.666C10.445 7.33366 10.233 7.42146 10.0768 7.57774C9.92048 7.73402 9.83268 7.94598 9.83268 8.16699C9.83268 8.38801 9.92048 8.59997 10.0768 8.75625C10.233 8.91253 10.445 9.00033 10.666 9.00033V9.00033ZM6.49935 5.66699H7.33268C7.5537 5.66699 7.76566 5.57919 7.92194 5.42291C8.07822 5.26663 8.16602 5.05467 8.16602 4.83366C8.16602 4.61265 8.07822 4.40068 7.92194 4.2444C7.76566 4.08812 7.5537 4.00033 7.33268 4.00033H6.49935C6.27834 4.00033 6.06637 4.08812 5.91009 4.2444C5.75381 4.40068 5.66602 4.61265 5.66602 4.83366C5.66602 5.05467 5.75381 5.26663 5.91009 5.42291C6.06637 5.57919 6.27834 5.66699 6.49935 5.66699V5.66699ZM6.49935 9.00033H7.33268C7.5537 9.00033 7.76566 8.91253 7.92194 8.75625C8.07822 8.59997 8.16602 8.38801 8.16602 8.16699C8.16602 7.94598 8.07822 7.73402 7.92194 7.57774C7.76566 7.42146 7.5537 7.33366 7.33268 7.33366H6.49935C6.27834 7.33366 6.06637 7.42146 5.91009 7.57774C5.75381 7.73402 5.66602 7.94598 5.66602 8.16699C5.66602 8.38801 5.75381 8.59997 5.91009 8.75625C6.06637 8.91253 6.27834 9.00033 6.49935 9.00033V9.00033ZM16.4993 15.667H15.666V1.50033C15.666 1.27931 15.5782 1.06735 15.4219 0.91107C15.2657 0.75479 15.0537 0.666992 14.8327 0.666992H3.16602C2.945 0.666992 2.73304 0.75479 2.57676 0.91107C2.42048 1.06735 2.33268 1.27931 2.33268 1.50033V15.667H1.49935C1.27834 15.667 1.06637 15.7548 0.910093 15.9111C0.753813 16.0674 0.666016 16.2793 0.666016 16.5003C0.666016 16.7213 0.753813 16.9333 0.910093 17.0896C1.06637 17.2459 1.27834 17.3337 1.49935 17.3337H16.4993C16.7204 17.3337 16.9323 17.2459 17.0886 17.0896C17.2449 16.9333 17.3327 16.7213 17.3327 16.5003C17.3327 16.2793 17.2449 16.0674 17.0886 15.9111C16.9323 15.7548 16.7204 15.667 16.4993 15.667ZM9.83268 15.667H8.16602V12.3337H9.83268V15.667ZM13.9993 15.667H11.4993V11.5003C11.4993 11.2793 11.4116 11.0674 11.2553 10.9111C11.099 10.7548 10.887 10.667 10.666 10.667H7.33268C7.11167 10.667 6.89971 10.7548 6.74343 10.9111C6.58715 11.0674 6.49935 11.2793 6.49935 11.5003V15.667H3.99935V2.33366H13.9993V15.667Z" fill="white"/>
</svg>
