<svg width="15" height="12" viewBox="0 0 15 12" fill="none" xmlns="http://www.w3.org/2000/svg">
<path d="M1.5 5.25C1.08579 5.25 0.75 5.58579 0.75 6C0.75 6.41421 1.08579 6.75 1.5 6.75V5.25ZM14.0303 6.53033C14.3232 6.23744 14.3232 5.76256 14.0303 5.46967L9.25736 0.696699C8.96447 0.403806 8.48959 0.403806 8.1967 0.696699C7.90381 0.989593 7.90381 1.46447 8.1967 1.75736L12.4393 6L8.1967 10.2426C7.90381 10.5355 7.90381 11.0104 8.1967 11.3033C8.48959 11.5962 8.96447 11.5962 9.25736 11.3033L14.0303 6.53033ZM1.5 6.75H13.5V5.25H1.5V6.75Z" fill="#495057"/>
</svg>
