<svg width="12" height="12" viewBox="0 0 12 12" fill="none" xmlns="http://www.w3.org/2000/svg">
<path fill-rule="evenodd" clip-rule="evenodd" d="M0 6C0 2.68629 2.68629 0 6 0H6.46979C9.52404 0 12 2.47596 12 5.53021V6C12 9.31371 9.31371 12 6 12C2.68629 12 0 9.31371 0 6Z" fill="#2D4F96" fill-opacity="0.1"/>
<path d="M6.00084 2.5177H5.99749C5.07322 2.51814 4.18698 2.88568 3.53366 3.53946C2.88034 4.19325 2.51345 5.07976 2.51367 6.00403C2.51389 6.92829 2.88121 7.81463 3.53484 8.4681C4.18848 9.12158 5.0749 9.48868 5.99916 9.48868C6.92343 9.48868 7.80985 9.12158 8.46348 8.4681C9.11711 7.81463 9.48443 6.92829 9.48465 6.00403C9.48488 5.07976 9.11798 4.19325 8.46466 3.53946C7.81135 2.88568 6.9251 2.51814 6.00084 2.5177ZM6.00084 8.94627C5.26527 8.94515 4.55673 8.66894 4.01448 8.17194C3.47222 7.67493 3.13548 6.99307 3.07044 6.26039C3.00539 5.52771 3.21676 4.79719 3.66298 4.21243C4.1092 3.62768 4.758 3.23097 5.48186 3.10029C5.20061 3.64605 5.19727 4.10141 5.19727 4.12484C5.19727 4.33796 5.28193 4.54236 5.43263 4.69305C5.58332 4.84375 5.78772 4.92841 6.00084 4.92841C6.21396 4.92841 6.41835 4.84375 6.56905 4.69305C6.71975 4.54236 6.80441 4.33796 6.80441 4.12484C6.80441 4.0538 6.77619 3.98567 6.72596 3.93544C6.67572 3.88521 6.60759 3.85699 6.53655 3.85699C6.46551 3.85699 6.39738 3.88521 6.34715 3.93544C6.29691 3.98567 6.26869 4.0538 6.26869 4.12484C6.26869 4.19588 6.24047 4.26401 6.19024 4.31425C6.14001 4.36448 6.07188 4.3927 6.00084 4.3927C5.9298 4.3927 5.86167 4.36448 5.81143 4.31425C5.7612 4.26401 5.73298 4.19588 5.73298 4.12484C5.73298 4.1215 5.74302 3.60252 6.13142 3.05676C6.89903 3.0933 7.62199 3.4283 8.14612 3.99032C8.67024 4.55233 8.95405 5.29688 8.93702 6.06517C8.91998 6.83346 8.60345 7.5647 8.05493 8.10293C7.50641 8.64116 6.76932 8.94379 6.00084 8.94627ZM4.79548 6.40163C4.71601 6.40163 4.63833 6.37806 4.57226 6.33392C4.50619 6.28977 4.45469 6.22702 4.42428 6.1536C4.39387 6.08018 4.38591 5.9994 4.40141 5.92146C4.41692 5.84352 4.45518 5.77193 4.51137 5.71574C4.56757 5.65955 4.63916 5.62128 4.7171 5.60578C4.79503 5.59027 4.87582 5.59823 4.94924 5.62864C5.02265 5.65905 5.0854 5.71055 5.12955 5.77662C5.1737 5.8427 5.19727 5.92038 5.19727 5.99984C5.19727 6.1064 5.15493 6.2086 5.07959 6.28395C5.00424 6.3593 4.90204 6.40163 4.79548 6.40163ZM7.60798 5.99984C7.60798 6.07931 7.58441 6.15699 7.54027 6.22306C7.49612 6.28914 7.43337 6.34063 7.35995 6.37104C7.28653 6.40145 7.20575 6.40941 7.12781 6.39391C7.04987 6.37841 6.97828 6.34014 6.92209 6.28395C6.8659 6.22776 6.82763 6.15617 6.81213 6.07823C6.79663 6.00029 6.80458 5.9195 6.83499 5.84609C6.8654 5.77267 6.9169 5.70992 6.98297 5.66577C7.04905 5.62162 7.12673 5.59806 7.20619 5.59806C7.31275 5.59806 7.41495 5.64039 7.4903 5.71574C7.56565 5.79109 7.60798 5.89328 7.60798 5.99984ZM7.11244 7.19181C7.1511 7.25111 7.16504 7.32319 7.15127 7.39263C7.13751 7.46207 7.09714 7.52338 7.03878 7.56346C6.73075 7.76665 6.36985 7.87495 6.00084 7.87495C5.63182 7.87495 5.27093 7.76665 4.96289 7.56346C4.90453 7.52338 4.86416 7.46207 4.8504 7.39263C4.83664 7.32319 4.85057 7.25111 4.88923 7.19181C4.90853 7.16229 4.93347 7.13688 4.96261 7.11703C4.99176 7.09718 5.02453 7.08327 5.05906 7.07612C5.09359 7.06896 5.1292 7.0687 5.16383 7.07534C5.19846 7.08197 5.23144 7.09538 5.26088 7.1148C5.47994 7.26106 5.73744 7.33912 6.00084 7.33912C6.26424 7.33912 6.52173 7.26106 6.74079 7.1148C6.77023 7.09538 6.80321 7.08197 6.83784 7.07534C6.87248 7.0687 6.90808 7.06896 6.94261 7.07612C6.97714 7.08327 7.00992 7.09718 7.03906 7.11703C7.06821 7.13688 7.09314 7.16229 7.11244 7.19181Z" fill="#2D4F96"/>
</svg>
