<svg width="18" height="18" viewBox="0 0 18 18" fill="none" xmlns="http://www.w3.org/2000/svg">
<path d="M14.8332 0.666504H3.1665C1.74984 0.666504 0.666504 1.74984 0.666504 3.1665V14.8332C0.666504 16.2498 1.74984 17.3332 3.1665 17.3332H14.8332C16.2498 17.3332 17.3332 16.2498 17.3332 14.8332V3.1665C17.3332 1.74984 16.2498 0.666504 14.8332 0.666504ZM15.6665 10.5832L14.0832 8.99984C13.0832 8.08317 11.4998 8.08317 10.5832 8.99984L9.83317 9.74984L7.4165 7.33317C6.4165 6.4165 4.83317 6.4165 3.9165 7.33317L2.33317 8.9165V3.1665C2.33317 2.6665 2.6665 2.33317 3.1665 2.33317H14.8332C15.3332 2.33317 15.6665 2.6665 15.6665 3.1665V10.5832Z" fill="#5171A5"/>
</svg>
