<svg width="11" height="10" viewBox="0 0 11 10" fill="none" xmlns="http://www.w3.org/2000/svg">
<path d="M9.62484 6C9.50328 6 9.3867 6.05268 9.30075 6.14645C9.21479 6.24021 9.1665 6.36739 9.1665 6.5V8.5C9.1665 8.63261 9.11822 8.75979 9.03226 8.85355C8.94631 8.94732 8.82973 9 8.70817 9H2.2915C2.16995 9 2.05337 8.94732 1.96741 8.85355C1.88146 8.75979 1.83317 8.63261 1.83317 8.5V6.5C1.83317 6.36739 1.78488 6.24021 1.69893 6.14645C1.61297 6.05268 1.49639 6 1.37484 6C1.25328 6 1.1367 6.05268 1.05075 6.14645C0.964792 6.24021 0.916504 6.36739 0.916504 6.5V8.5C0.916504 8.89782 1.06137 9.27936 1.31923 9.56066C1.57709 9.84196 1.92683 10 2.2915 10H8.70817C9.07284 10 9.42258 9.84196 9.68044 9.56066C9.9383 9.27936 10.0832 8.89782 10.0832 8.5V6.5C10.0832 6.36739 10.0349 6.24021 9.94893 6.14645C9.86297 6.05268 9.74639 6 9.62484 6ZM5.17442 6.855C5.21801 6.90052 5.26941 6.9362 5.32567 6.96C5.38053 6.98645 5.43985 7.00012 5.49984 7.00012C5.55982 7.00012 5.61914 6.98645 5.674 6.96C5.73026 6.9362 5.78166 6.90052 5.82525 6.855L7.65859 4.855C7.74489 4.76085 7.79338 4.63315 7.79338 4.5C7.79338 4.36685 7.74489 4.23915 7.65859 4.145C7.57228 4.05085 7.45523 3.99795 7.33317 3.99795C7.21112 3.99795 7.09406 4.05085 7.00775 4.145L5.95817 5.295V0.5C5.95817 0.367392 5.90988 0.240215 5.82393 0.146447C5.73797 0.0526784 5.62139 0 5.49984 0C5.37828 0 5.2617 0.0526784 5.17575 0.146447C5.08979 0.240215 5.0415 0.367392 5.0415 0.5V5.295L3.99192 4.145C3.94919 4.09838 3.89845 4.0614 3.84262 4.03617C3.78678 4.01094 3.72694 3.99795 3.6665 3.99795C3.60607 3.99795 3.54622 4.01094 3.49039 4.03617C3.43455 4.0614 3.38382 4.09838 3.34109 4.145C3.29835 4.19162 3.26445 4.24696 3.24133 4.30788C3.2182 4.36879 3.2063 4.43407 3.2063 4.5C3.2063 4.56593 3.2182 4.63121 3.24133 4.69212C3.26445 4.75304 3.29835 4.80838 3.34109 4.855L5.17442 6.855Z" fill="#5171A5"/>
</svg>
