<svg width="11" height="11" viewBox="0 0 11 11" fill="none" xmlns="http://www.w3.org/2000/svg">
<path d="M5.49984 5.0415C5.37828 5.0415 5.2617 5.08979 5.17575 5.17575C5.08979 5.2617 5.04151 5.37828 5.04151 5.49984V7.33317C5.04151 7.45473 5.08979 7.57131 5.17575 7.65726C5.2617 7.74322 5.37828 7.7915 5.49984 7.7915C5.6214 7.7915 5.73798 7.74322 5.82393 7.65726C5.90988 7.57131 5.95817 7.45473 5.95817 7.33317V5.49984C5.95817 5.37828 5.90988 5.2617 5.82393 5.17575C5.73798 5.08979 5.6214 5.0415 5.49984 5.0415ZM5.67401 3.24484C5.56242 3.199 5.43726 3.199 5.32567 3.24484C5.26941 3.26665 5.21801 3.29936 5.17442 3.34109C5.13394 3.38564 5.10138 3.43679 5.07817 3.49234C5.05251 3.54673 5.03996 3.60638 5.04151 3.6665C5.04116 3.72682 5.05272 3.78662 5.07553 3.84246C5.09834 3.8983 5.13194 3.94909 5.17442 3.99192C5.21897 4.03241 5.27013 4.06496 5.32567 4.08817C5.39511 4.1167 5.47049 4.12773 5.54519 4.12031C5.61989 4.11288 5.69162 4.08722 5.75408 4.04558C5.81654 4.00394 5.86782 3.94759 5.90341 3.88149C5.93899 3.8154 5.9578 3.74157 5.95817 3.6665C5.95648 3.54515 5.90901 3.42892 5.82526 3.34109C5.78167 3.29936 5.73027 3.26665 5.67401 3.24484ZM5.49984 0.916504C4.59334 0.916504 3.7072 1.18531 2.95348 1.68893C2.19975 2.19256 1.61229 2.90838 1.26539 3.74587C0.91849 4.58337 0.827725 5.50492 1.00457 6.394C1.18142 7.28308 1.61794 8.09975 2.25893 8.74074C2.89992 9.38173 3.7166 9.81825 4.60568 9.9951C5.49475 10.172 6.41631 10.0812 7.25381 9.73429C8.0913 9.38738 8.80712 8.79993 9.31074 8.0462C9.81436 7.29248 10.0832 6.40633 10.0832 5.49984C10.0832 4.89795 9.96462 4.30195 9.73429 3.74587C9.50395 3.1898 9.16635 2.68453 8.74074 2.25893C8.31514 1.83333 7.80988 1.49572 7.25381 1.26539C6.69773 1.03506 6.10173 0.916504 5.49984 0.916504V0.916504ZM5.49984 9.1665C4.77464 9.1665 4.06573 8.95146 3.46275 8.54856C2.85977 8.14566 2.3898 7.57301 2.11228 6.90301C1.83476 6.23301 1.76215 5.49577 1.90363 4.78451C2.04511 4.07324 2.39432 3.4199 2.90711 2.90711C3.41991 2.39432 4.07324 2.0451 4.78451 1.90362C5.49577 1.76215 6.23302 1.83476 6.90301 2.11228C7.57301 2.3898 8.14566 2.85977 8.54856 3.46275C8.95146 4.06573 9.16651 4.77464 9.16651 5.49984C9.16651 6.4723 8.7802 7.40493 8.09256 8.09256C7.40493 8.7802 6.4723 9.1665 5.49984 9.1665V9.1665Z" fill="#2D4F96"/>
</svg>
