<svg width="12" height="9" viewBox="0 0 12 9" fill="none" xmlns="http://www.w3.org/2000/svg">
<path d="M3.03333 1.7C3.03333 1.75 3.0875 1.8 3.14167 1.85L4.225 2.85C4.33333 2.95 4.44167 3 4.60417 3C4.76667 3 4.875 2.95 4.98333 2.85C5.2 2.65 5.2 2.35 4.98333 2.15L4.82083 2H7.09583L6.93333 2.15C6.825 2.25 6.77083 2.35 6.77083 2.5C6.77083 2.8 6.9875 3 7.3125 3C7.475 3 7.58333 2.95 7.69167 2.85L8.775 1.85C8.82917 1.8 8.88333 1.75 8.88333 1.7C8.88333 1.65 8.9375 1.6 8.9375 1.5C8.9375 1.45 8.9375 1.35 8.88333 1.3C8.82917 1.25 8.82917 1.2 8.775 1.15L7.69167 0.15C7.475 -0.05 7.15 -0.05 6.93333 0.15C6.71667 0.35 6.71667 0.65 6.93333 0.85L7.09583 1H4.82083L4.98333 0.85C5.2 0.65 5.2 0.35 4.98333 0.15C4.76667 -0.05 4.44167 -0.05 4.225 0.15L3.14167 1.15C3.0875 1.2 3.03333 1.25 3.03333 1.3C3.03333 1.35 2.97917 1.4 2.97917 1.5C2.97917 1.55 2.97917 1.65 3.03333 1.7ZM2.70833 5.6C3.46667 5.6 4.11667 5 4.11667 4.3C4.11667 3.6 3.46667 3 2.70833 3C1.95 3 1.3 3.6 1.3 4.3C1.3 5 1.95 5.6 2.70833 5.6ZM4.76667 6.95C3.35833 5.9 1.3 6.1 0.1625 7.4C0.0541666 7.55 0 7.7 0 7.85C0 8.2 0.325 8.5 0.704167 8.5H4.7125C4.98333 8.5 5.25417 8.35 5.3625 8.15C5.47083 7.95 5.47083 7.65 5.25417 7.45C5.09167 7.25 4.92917 7.1 4.76667 6.95ZM7.8 4.3C7.8 5 8.45 5.6 9.20833 5.6C9.96667 5.6 10.6167 5 10.6167 4.3C10.6167 3.6 9.96667 3 9.20833 3C8.45 3 7.8 3.6 7.8 4.3ZM11.7542 7.45C11.5917 7.3 11.4292 7.1 11.2667 7C9.85833 5.95 7.8 6.15 6.6625 7.45C6.55417 7.55 6.5 7.7 6.5 7.85C6.5 8.2 6.825 8.5 7.20417 8.5H11.2125C11.4833 8.5 11.7542 8.35 11.8625 8.15C11.9708 7.9 11.9167 7.65 11.7542 7.45Z" fill="white"/>
</svg>
