<svg width="15" height="15" viewBox="0 0 15 15" fill="none" xmlns="http://www.w3.org/2000/svg">
<circle cx="7" cy="7" r="7" fill="#2D4F96"/>
<path d="M10.559 6.61166H7.5985V3.65114C7.5985 3.52027 7.54652 3.39477 7.45398 3.30223C7.36145 3.2097 7.23595 3.15771 7.10508 3.15771C6.97422 3.15771 6.84872 3.2097 6.75618 3.30223C6.66365 3.39477 6.61166 3.52027 6.61166 3.65114V6.61166H3.65114C3.52027 6.61166 3.39477 6.66365 3.30223 6.75618C3.2097 6.84872 3.15771 6.97422 3.15771 7.10508C3.15771 7.23595 3.2097 7.36145 3.30223 7.45398C3.39477 7.54652 3.52027 7.5985 3.65114 7.5985H6.61166V10.559C6.61166 10.6899 6.66365 10.8154 6.75618 10.9079C6.84872 11.0005 6.97422 11.0525 7.10508 11.0525C7.23595 11.0525 7.36145 11.0005 7.45398 10.9079C7.54652 10.8154 7.5985 10.6899 7.5985 10.559V7.5985H10.559C10.6899 7.5985 10.8154 7.54652 10.9079 7.45398C11.0005 7.36145 11.0525 7.23595 11.0525 7.10508C11.0525 6.97422 11.0005 6.84872 10.9079 6.75618C10.8154 6.66365 10.6899 6.61166 10.559 6.61166Z" fill="white"/>
</svg>
