<svg width="9" height="10" viewBox="0 0 9 10" fill="none" xmlns="http://www.w3.org/2000/svg">
<path d="M8.65543 7.18924L7.4727 6.00651C7.42727 5.9607 7.37322 5.92434 7.31366 5.89953C7.2541 5.87472 7.19022 5.86194 7.1257 5.86194C7.06119 5.86194 6.99731 5.87472 6.93775 5.89953C6.87819 5.92434 6.82414 5.9607 6.77871 6.00651L5.02905 7.75617C4.98375 7.80184 4.94791 7.85599 4.92359 7.91554C4.89927 7.97509 4.88694 8.03885 4.88731 8.10317V9.2859C4.88731 9.41552 4.93881 9.53983 5.03046 9.63148C5.12212 9.72314 5.24643 9.77463 5.37605 9.77463H6.55878C6.6231 9.775 6.68686 9.76267 6.7464 9.73835C6.80595 9.71403 6.86011 9.67819 6.90578 9.6329L8.65543 7.88324C8.70124 7.8378 8.7376 7.78375 8.76241 7.72419C8.78723 7.66464 8.8 7.60076 8.8 7.53624C8.8 7.47172 8.78723 7.40784 8.76241 7.34828C8.7376 7.28873 8.70124 7.23467 8.65543 7.18924ZM6.35351 8.79717H5.86478V8.30843L7.1257 7.04751L7.61444 7.53624L6.35351 8.79717ZM3.42112 8.79717H1.46619C1.33657 8.79717 1.21226 8.74568 1.12061 8.65402C1.02895 8.56237 0.977463 8.43805 0.977463 8.30843V1.46619C0.977463 1.33657 1.02895 1.21226 1.12061 1.12061C1.21226 1.02895 1.33657 0.977463 1.46619 0.977463H3.90985V2.44366C3.90985 2.83252 4.06433 3.20545 4.33929 3.48041C4.61425 3.75538 4.98719 3.90985 5.37605 3.90985H6.84224V4.39858C6.84224 4.5282 6.89373 4.65251 6.98539 4.74417C7.07704 4.83582 7.20135 4.88731 7.33097 4.88731C7.46059 4.88731 7.5849 4.83582 7.67656 4.74417C7.76821 4.65251 7.8197 4.5282 7.8197 4.39858V3.42112C7.8197 3.42112 7.8197 3.42112 7.8197 3.3918C7.81461 3.3469 7.80478 3.30267 7.79038 3.25984V3.21585C7.76688 3.1656 7.73554 3.11941 7.69752 3.07901L4.76513 0.146619C4.72473 0.108604 4.67854 0.0772591 4.62829 0.0537604C4.6137 0.0516883 4.59889 0.0516883 4.5843 0.0537604L4.42791 0H1.46619C1.07734 0 0.704403 0.154474 0.429438 0.429438C0.154474 0.704403 0 1.07734 0 1.46619V8.30843C0 8.69729 0.154474 9.07023 0.429438 9.34519C0.704403 9.62016 1.07734 9.77463 1.46619 9.77463H3.42112C3.55074 9.77463 3.67505 9.72314 3.76671 9.63148C3.85836 9.53983 3.90985 9.41552 3.90985 9.2859C3.90985 9.15628 3.85836 9.03197 3.76671 8.94031C3.67505 8.84866 3.55074 8.79717 3.42112 8.79717ZM4.88731 1.66657L6.15313 2.93239H5.37605C5.24643 2.93239 5.12212 2.8809 5.03046 2.78924C4.93881 2.69759 4.88731 2.57328 4.88731 2.44366V1.66657ZM2.44366 5.86478H5.37605C5.50567 5.86478 5.62998 5.81329 5.72163 5.72163C5.81329 5.62998 5.86478 5.50567 5.86478 5.37605C5.86478 5.24643 5.81329 5.12212 5.72163 5.03046C5.62998 4.93881 5.50567 4.88731 5.37605 4.88731H2.44366C2.31404 4.88731 2.18973 4.93881 2.09807 5.03046C2.00642 5.12212 1.95493 5.24643 1.95493 5.37605C1.95493 5.50567 2.00642 5.62998 2.09807 5.72163C2.18973 5.81329 2.31404 5.86478 2.44366 5.86478ZM2.44366 3.90985H2.93239C3.06201 3.90985 3.18632 3.85836 3.27797 3.76671C3.36963 3.67505 3.42112 3.55074 3.42112 3.42112C3.42112 3.2915 3.36963 3.16719 3.27797 3.07553C3.18632 2.98388 3.06201 2.93239 2.93239 2.93239H2.44366C2.31404 2.93239 2.18973 2.98388 2.09807 3.07553C2.00642 3.16719 1.95493 3.2915 1.95493 3.42112C1.95493 3.55074 2.00642 3.67505 2.09807 3.76671C2.18973 3.85836 2.31404 3.90985 2.44366 3.90985ZM3.42112 6.84224H2.44366C2.31404 6.84224 2.18973 6.89373 2.09807 6.98539C2.00642 7.07704 1.95493 7.20135 1.95493 7.33097C1.95493 7.46059 2.00642 7.5849 2.09807 7.67656C2.18973 7.76821 2.31404 7.8197 2.44366 7.8197H3.42112C3.55074 7.8197 3.67505 7.76821 3.76671 7.67656C3.85836 7.5849 3.90985 7.46059 3.90985 7.33097C3.90985 7.20135 3.85836 7.07704 3.76671 6.98539C3.67505 6.89373 3.55074 6.84224 3.42112 6.84224Z" fill="white"/>
</svg>
