<svg width="12" height="12" viewBox="0 0 12 12" fill="none" xmlns="http://www.w3.org/2000/svg">
<path d="M4.66667 9.6C4.84348 9.6 5.01305 9.53679 5.13807 9.42426C5.2631 9.31174 5.33333 9.15913 5.33333 9V5.4C5.33333 5.24087 5.2631 5.08826 5.13807 4.97574C5.01305 4.86321 4.84348 4.8 4.66667 4.8C4.48986 4.8 4.32029 4.86321 4.19526 4.97574C4.07024 5.08826 4 5.24087 4 5.4V9C4 9.15913 4.07024 9.31174 4.19526 9.42426C4.32029 9.53679 4.48986 9.6 4.66667 9.6ZM11.3333 2.4H8.66667V1.8C8.66667 1.32261 8.45595 0.864773 8.08088 0.527208C7.70581 0.189642 7.1971 0 6.66667 0H5.33333C4.8029 0 4.29419 0.189642 3.91912 0.527208C3.54405 0.864773 3.33333 1.32261 3.33333 1.8V2.4H0.666667C0.489856 2.4 0.320286 2.46321 0.195262 2.57574C0.0702379 2.68826 0 2.84087 0 3C0 3.15913 0.0702379 3.31174 0.195262 3.42426C0.320286 3.53679 0.489856 3.6 0.666667 3.6H1.33333V10.2C1.33333 10.6774 1.54405 11.1352 1.91912 11.4728C2.29419 11.8104 2.8029 12 3.33333 12H8.66667C9.1971 12 9.70581 11.8104 10.0809 11.4728C10.456 11.1352 10.6667 10.6774 10.6667 10.2V3.6H11.3333C11.5101 3.6 11.6797 3.53679 11.8047 3.42426C11.9298 3.31174 12 3.15913 12 3C12 2.84087 11.9298 2.68826 11.8047 2.57574C11.6797 2.46321 11.5101 2.4 11.3333 2.4ZM4.66667 1.8C4.66667 1.64087 4.7369 1.48826 4.86193 1.37574C4.98695 1.26321 5.15652 1.2 5.33333 1.2H6.66667C6.84348 1.2 7.01305 1.26321 7.13807 1.37574C7.2631 1.48826 7.33333 1.64087 7.33333 1.8V2.4H4.66667V1.8ZM9.33333 10.2C9.33333 10.3591 9.2631 10.5117 9.13807 10.6243C9.01305 10.7368 8.84348 10.8 8.66667 10.8H3.33333C3.15652 10.8 2.98695 10.7368 2.86193 10.6243C2.7369 10.5117 2.66667 10.3591 2.66667 10.2V3.6H9.33333V10.2ZM7.33333 9.6C7.51014 9.6 7.67971 9.53679 7.80474 9.42426C7.92976 9.31174 8 9.15913 8 9V5.4C8 5.24087 7.92976 5.08826 7.80474 4.97574C7.67971 4.86321 7.51014 4.8 7.33333 4.8C7.15652 4.8 6.98695 4.86321 6.86193 4.97574C6.73691 5.08826 6.66667 5.24087 6.66667 5.4V9C6.66667 9.15913 6.73691 9.31174 6.86193 9.42426C6.98695 9.53679 7.15652 9.6 7.33333 9.6Z" fill="#5171A5"/>
</svg>
