<svg width="10" height="10" viewBox="0 0 10 10" fill="none" xmlns="http://www.w3.org/2000/svg">
<path d="M3.355 2.85495L4.5 1.70495V6.49995C4.5 6.63256 4.55268 6.75973 4.64645 6.8535C4.74021 6.94727 4.86739 6.99995 5 6.99995C5.13261 6.99995 5.25979 6.94727 5.35355 6.8535C5.44732 6.75973 5.5 6.63256 5.5 6.49995V1.70495L6.645 2.85495C6.69148 2.90181 6.74678 2.93901 6.80771 2.96439C6.86864 2.98978 6.93399 3.00285 7 3.00285C7.06601 3.00285 7.13136 2.98978 7.19229 2.96439C7.25322 2.93901 7.30852 2.90181 7.355 2.85495C7.40186 2.80847 7.43906 2.75317 7.46445 2.69224C7.48983 2.63131 7.5029 2.56595 7.5029 2.49995C7.5029 2.43394 7.48983 2.36859 7.46445 2.30766C7.43906 2.24673 7.40186 2.19143 7.355 2.14495L5.355 0.144948C5.30745 0.0994279 5.25138 0.0637454 5.19 0.0399482C5.06827 -0.0100608 4.93173 -0.0100608 4.81 0.0399482C4.74862 0.0637454 4.69255 0.0994279 4.645 0.144948L2.645 2.14495C2.59838 2.19157 2.5614 2.24691 2.53617 2.30782C2.51094 2.36873 2.49795 2.43402 2.49795 2.49995C2.49795 2.56588 2.51094 2.63116 2.53617 2.69207C2.5614 2.75298 2.59838 2.80833 2.645 2.85495C2.69162 2.90157 2.74696 2.93855 2.80788 2.96378C2.86879 2.98901 2.93407 3.00199 3 3.00199C3.06593 3.00199 3.13121 2.98901 3.19212 2.96378C3.25304 2.93855 3.30838 2.90157 3.355 2.85495ZM9.5 4.99995C9.36739 4.99995 9.24021 5.05263 9.14645 5.14639C9.05268 5.24016 9 5.36734 9 5.49995V8.49995C9 8.63256 8.94732 8.75973 8.85355 8.8535C8.75979 8.94727 8.63261 8.99995 8.5 8.99995H1.5C1.36739 8.99995 1.24021 8.94727 1.14645 8.8535C1.05268 8.75973 1 8.63256 1 8.49995V5.49995C1 5.36734 0.947322 5.24016 0.853553 5.14639C0.759785 5.05263 0.632608 4.99995 0.5 4.99995C0.367392 4.99995 0.240215 5.05263 0.146447 5.14639C0.0526784 5.24016 0 5.36734 0 5.49995V8.49995C0 8.89777 0.158035 9.2793 0.43934 9.56061C0.720644 9.84191 1.10218 9.99995 1.5 9.99995H8.5C8.89782 9.99995 9.27936 9.84191 9.56066 9.56061C9.84196 9.2793 10 8.89777 10 8.49995V5.49995C10 5.36734 9.94732 5.24016 9.85355 5.14639C9.75979 5.05263 9.63261 4.99995 9.5 4.99995Z" fill="white"/>
</svg>
